<svg viewBox="0 0 512 512" fill="none" xmlns="http://www.w3.org/2000/svg"><g clip-path="url(#a)" fill="#000"><path d="M357.824.256c-1.088-1.216-40.288.48-74.4 37.504-34.112 36.992-28.864 79.424-28.096 80.512.768 1.088 48.64 2.784 79.2-40.256 30.56-43.04 24.384-76.512 23.296-77.76Zm106.048 375.456c-1.536-3.072-74.4-39.488-67.616-109.504 6.784-70.048 53.6-89.248 54.336-91.328.736-2.08-19.104-25.28-40.128-37.024a118.14 118.14 0 0 0-50.016-13.888c-3.456-.096-15.456-3.04-40.128 3.712-16.256 4.448-52.896 18.848-62.976 19.424-10.112.576-40.192-16.704-72.544-21.28-20.704-4-42.656 4.192-58.368 10.496-15.68 6.272-45.504 24.128-66.368 71.584-20.864 47.424-9.952 122.56-2.144 145.92 7.808 23.328 20 61.568 40.736 89.472 18.432 31.488 42.88 53.344 53.088 60.768 10.208 7.424 39.008 12.352 58.976 2.144 16.064-9.856 45.056-15.52 56.512-15.104 11.424.416 33.952 4.928 57.024 17.248 18.272 6.304 35.552 3.68 52.864-3.36 17.312-7.072 42.368-33.888 71.616-88.256 11.104-25.28 16.16-38.944 15.136-41.024Z"/><path d="M357.824.256c-1.088-1.216-40.288.48-74.4 37.504-34.112 36.992-28.864 79.424-28.096 80.512.768 1.088 48.64 2.784 79.2-40.256 30.56-43.04 24.384-76.512 23.296-77.76Zm106.048 375.456c-1.536-3.072-74.4-39.488-67.616-109.504 6.784-70.048 53.6-89.248 54.336-91.328.736-2.08-19.104-25.28-40.128-37.024a118.14 118.14 0 0 0-50.016-13.888c-3.456-.096-15.456-3.04-40.128 3.712-16.256 4.448-52.896 18.848-62.976 19.424-10.112.576-40.192-16.704-72.544-21.28-20.704-4-42.656 4.192-58.368 10.496-15.68 6.272-45.504 24.128-66.368 71.584-20.864 47.424-9.952 122.56-2.144 145.92 7.808 23.328 20 61.568 40.736 89.472 18.432 31.488 42.88 53.344 53.088 60.768 10.208 7.424 39.008 12.352 58.976 2.144 16.064-9.856 45.056-15.52 56.512-15.104 11.424.416 33.952 4.928 57.024 17.248 18.272 6.304 35.552 3.68 52.864-3.36 17.312-7.072 42.368-33.888 71.616-88.256 11.104-25.28 16.16-38.944 15.136-41.024Z"/></g><defs><clipPath id="a"><path fill="#fff" d="M0 0h512v512H0z"/></clipPath></defs></svg>