<svg viewBox="0 0 512 512" fill="none" xmlns="http://www.w3.org/2000/svg">
<g clip-path="url(#clip0_1930_3419)">
<path d="M357.824 0.25598C356.736 -0.96002 317.536 0.735981 283.424 37.76C249.312 74.752 254.56 117.184 255.328 118.272C256.096 119.36 303.968 121.056 334.528 78.016C365.088 34.976 358.912 1.50398 357.824 0.25598V0.25598ZM463.872 375.712C462.336 372.64 389.472 336.224 396.256 266.208C403.04 196.16 449.856 176.96 450.592 174.88C451.328 172.8 431.488 149.6 410.464 137.856C395.028 129.576 377.943 124.832 360.448 123.968C356.992 123.872 344.992 120.928 320.32 127.68C304.064 132.128 267.424 146.528 257.344 147.104C247.232 147.68 217.152 130.4 184.8 125.824C164.096 121.824 142.144 130.016 126.432 136.32C110.752 142.592 80.9281 160.448 60.0641 207.904C39.2001 255.328 50.1121 330.464 57.9201 353.824C65.7281 377.152 77.9201 415.392 98.6561 443.296C117.088 474.784 141.536 496.64 151.744 504.064C161.952 511.488 190.752 516.416 210.72 506.208C226.784 496.352 255.776 490.688 267.232 491.104C278.656 491.52 301.184 496.032 324.256 508.352C342.528 514.656 359.808 512.032 377.12 504.992C394.432 497.92 419.488 471.104 448.736 416.736C459.84 391.456 464.896 377.792 463.872 375.712V375.712Z" fill="black"/>
<path d="M357.824 0.25598C356.736 -0.96002 317.536 0.735981 283.424 37.76C249.312 74.752 254.56 117.184 255.328 118.272C256.096 119.36 303.968 121.056 334.528 78.016C365.088 34.976 358.912 1.50398 357.824 0.25598V0.25598ZM463.872 375.712C462.336 372.64 389.472 336.224 396.256 266.208C403.04 196.16 449.856 176.96 450.592 174.88C451.328 172.8 431.488 149.6 410.464 137.856C395.028 129.576 377.943 124.832 360.448 123.968C356.992 123.872 344.992 120.928 320.32 127.68C304.064 132.128 267.424 146.528 257.344 147.104C247.232 147.68 217.152 130.4 184.8 125.824C164.096 121.824 142.144 130.016 126.432 136.32C110.752 142.592 80.9281 160.448 60.0641 207.904C39.2001 255.328 50.1121 330.464 57.9201 353.824C65.7281 377.152 77.9201 415.392 98.6561 443.296C117.088 474.784 141.536 496.64 151.744 504.064C161.952 511.488 190.752 516.416 210.72 506.208C226.784 496.352 255.776 490.688 267.232 491.104C278.656 491.52 301.184 496.032 324.256 508.352C342.528 514.656 359.808 512.032 377.12 504.992C394.432 497.92 419.488 471.104 448.736 416.736C459.84 391.456 464.896 377.792 463.872 375.712V375.712Z" fill="black"/>
</g>
<defs>
<clipPath id="clip0_1930_3419">
<rect width="512" height="512" fill="white"/>
</clipPath>
</defs>
</svg>
