<svg viewBox="0 0 512 512" fill="none" xmlns="http://www.w3.org/2000/svg"><path d="M424.99 356.992a26.877 26.877 0 0 1 12 9.504c2.688 4 4.576 8.832 5.76 14.496.64 3.328 1.408 6.4 2.24 9.28a56.747 56.747 0 0 0 7.008 15.232c1.504 2.336 3.52 4.896 6.016 7.744 2.144 2.336 4.064 5.344 5.76 8.992a25.37 25.37 0 0 1 2.464 10.496 15.677 15.677 0 0 1-2.976 9.76 30.19 30.19 0 0 1-7.52 7.008 90.284 90.284 0 0 1-12 7.008 377.92 377.92 0 0 0-12.48 6.24 116.014 116.014 0 0 0-17.76 10.496c-4.992 3.68-10.016 8.32-15.008 14.016a90.055 90.055 0 0 1-20 16.736 47.063 47.063 0 0 1-12.256 5.504c-4.16 1.152-8.32 1.92-12.48 2.24-9.664 0-17.664-1.664-24-4.992-6.336-3.328-11.84-9.408-16.512-18.24-1.344-2.528-2.656-4.096-4-4.768a24.725 24.725 0 0 0-6.496-1.76L277.438 480c-8.32-.64-16.8-.992-25.472-.992-7.202.01-14.392.587-21.504 1.728a326.667 326.667 0 0 0-21.76 4.256c-1.472.32-2.976 1.6-4.48 3.744A54.362 54.362 0 0 1 197.95 496a35.4 35.4 0 0 1-10.72 7.008 47.2 47.2 0 0 1-17.76 3.232c-5.504 0-11.424-.576-17.76-1.728a58.26 58.26 0 0 1-16.992-5.76 114.48 114.48 0 0 0-30.496-10.496 653.08 653.08 0 0 0-31.743-4.992 108.42 108.42 0 0 1-11.008-2.016 24.767 24.767 0 0 1-9.28-4.256 22.562 22.562 0 0 1-6.209-7.008 24.96 24.96 0 0 1-2.527-11.232c0-5.184.672-10.176 2.016-15.008 1.344-4.8 2.08-9.92 2.24-15.232 0-3.68-.256-7.264-.736-10.752a112.96 112.96 0 0 1-1.025-11.264c0-8.48 2.017-14.72 6.017-18.752 4-4 9.824-7.168 17.504-9.504a31.69 31.69 0 0 0 9.504-4.736 72.647 72.647 0 0 0 7.488-6.496 59.484 59.484 0 0 0 6.496-7.744 99.417 99.417 0 0 1 6.751-8.512 3.647 3.647 0 0 0 .768-2.24c0-2.016-.096-3.936-.256-5.76l-.511-6.016c0-11.328 1.759-22.72 5.247-34.24 3.52-11.52 8.096-22.72 13.76-33.76a290.905 290.905 0 0 1 19.008-31.744c6.976-10.144 13.92-19.584 20.736-28.256a139.174 139.174 0 0 0 21.76-38.496c4.8-13.312 7.328-27.84 7.488-43.52 0-6.624-.32-13.216-.992-19.712a196.153 196.153 0 0 1-.992-20c0-13.344 1.504-25.344 4.48-36 3.008-10.688 7.68-19.84 14.016-27.52S218.814 10.08 228.958 6.24C239.166 2.4 251.326.32 265.47 0c16.864 0 30.272 3.328 40.288 10.016 9.984 6.656 17.664 15.392 22.976 26.24 5.344 10.816 8.768 22.912 10.24 36.256 1.536 13.312 2.368 26.816 2.528 40.48v4.256c0 6.848.064 12.928.256 18.24a80.866 80.866 0 0 0 7.232 31.264c2.336 5.152 5.824 10.752 10.496 16.736 8 10.528 16.192 21.12 24.512 31.776a333.834 333.834 0 0 1 22.72 32.96c6.848 11.36 12.448 23.2 16.768 35.52 4.352 12.352 6.592 25.664 6.752 40a105.573 105.573 0 0 1-5.248 33.28v-.032ZM215.262 96.512c2.304 0 4.224.576 5.76 1.728a11.414 11.414 0 0 1 3.488 4.768 27.111 27.111 0 0 1 1.728 5.984c.32 2.016.512 4.096.512 6.272a9.006 9.006 0 0 1-.768 4 8.624 8.624 0 0 1-2.24 2.752l-3.008 2.496a25.579 25.579 0 0 0-2.976 2.976A13.692 13.692 0 0 1 212.99 132a68.21 68.21 0 0 0-5.76 3.744 42.008 42.008 0 0 0-4.992 4.256 8.46 8.46 0 0 0-2.24 6.24c0 1.504.736 2.752 2.24 3.744a22.52 22.52 0 0 1 8.512 9.76c1.664 3.84 3.52 7.584 5.504 11.264a30.116 30.116 0 0 0 7.744 9.248c3.168 2.496 8.096 3.744 14.72 3.744h1.536c6.656-.32 12.992-2.08 19.008-5.248a459.35 459.35 0 0 0 17.984-10.016 20.265 20.265 0 0 1 3.264-1.472 11.83 11.83 0 0 0 3.232-1.76l18.24-14.24c.318-1.073.574-2.162.768-3.264.195-1.17.366-2.343.512-3.52a7.54 7.54 0 0 0-1.28-4.48 12.8 12.8 0 0 0-2.976-3.008 10.887 10.887 0 0 0-4.255-1.728 29.036 29.036 0 0 1-4.481-1.28 34.68 34.68 0 0 1-11.264-4.48 46.581 46.581 0 0 0-11.008-4.992c-.64-.192-1.152-.672-1.504-1.504a31.682 31.682 0 0 1-.992-3.008 7.377 7.377 0 0 1-.256-3.264 4.025 4.025 0 0 0-.256-2.496c0-1.984.16-4.064.512-6.24a17.656 17.656 0 0 1 2.24-6.24 13.353 13.353 0 0 1 4-4.48 13.153 13.153 0 0 1 6.496-1.792c5.184 0 8.928 1.92 11.264 5.76 2.336 3.84 3.584 8 3.744 12.48a12.693 12.693 0 0 1-1.248 5.76 12.137 12.137 0 0 0-1.28 5.504c0 1.344.448 2.24 1.28 2.752 1.008.553 2.12.89 3.264.992 3.84 0 6.304-.896 7.488-2.72a17.045 17.045 0 0 0 1.984-8.256c0-3.84-.32-8.096-.96-12.768A42.21 42.21 0 0 0 299.742 92a31.003 31.003 0 0 0-7.744-10.016 18.366 18.366 0 0 0-12.256-3.968c-8.64 0-14.912 2.144-18.752 6.496-3.84 4.32-5.824 10.816-5.984 19.488 0 2.496.16 4.992.48 7.488.32 2.528.512 5.024.512 7.52 0 .832-.096 1.248-.256 1.248a7.025 7.025 0 0 1-1.504-.512c-.996-.404-1.988-.82-2.976-1.248a24.665 24.665 0 0 0-3.776-1.248 16.436 16.436 0 0 0-6.496-.256 32.208 32.208 0 0 1-4 .256c-2.336 0-3.52-.416-3.52-1.248 0-2.496-.128-5.664-.48-9.504-.32-3.84-1.152-7.68-2.496-11.52a31.824 31.824 0 0 0-4.992-9.472c-2.016-2.496-4.992-3.84-8.992-4a10.337 10.337 0 0 0-7.264 2.752 29.006 29.006 0 0 0-5.248 6.496 20.487 20.487 0 0 0-2.752 8.512 172.081 172.081 0 0 1-.992 8 46.726 46.726 0 0 0 2.24 12.992c.832 2.656 1.76 4.992 2.752 7.008.992 1.984 2.176 2.976 3.52 2.976.8 0 1.92-.576 3.232-1.728 1.344-1.184 2.016-2.24 2.016-3.264 0-.512-.256-.832-.768-.992a4.695 4.695 0 0 0-1.504-.256c-1.152 0-2.176-.576-3.008-1.76a15.003 15.003 0 0 1-1.984-4 166.838 166.838 0 0 1-1.504-4.736 18.052 18.052 0 0 1 1.76-12.736c1.504-2.688 4.256-4.096 8.256-4.256ZM160.734 485.76c4 0 7.936-.32 11.776-1.024a31.035 31.035 0 0 0 10.752-4 19.642 19.642 0 0 0 7.488-7.744 30.165 30.165 0 0 0 3.008-12 26.084 26.084 0 0 0-1.504-8.736 30.76 30.76 0 0 0-4.256-8 88.167 88.167 0 0 0-6.496-8.992 88.58 88.58 0 0 1-6.496-9.024 2056.224 2056.224 0 0 1-9.28-13.76 325.595 325.595 0 0 1-8.96-14.24 260.74 260.74 0 0 1-7.52-12.992 84.537 84.537 0 0 0-8.512-12.736 38.485 38.485 0 0 0-6.976-6.752 15.007 15.007 0 0 0-9.28-3.008 13.953 13.953 0 0 0-9.472 3.52 72.358 72.358 0 0 0-8.256 8.48 103.69 103.69 0 0 1-9.504 9.76c-3.52 3.168-8 5.664-13.503 7.488a23.81 23.81 0 0 0-9.984 5.504c-2.337 2.336-3.52 5.92-3.52 10.752 0 3.328.255 6.656.767 9.984.48 3.328.832 6.688.993 10.016 0 4.48-.64 8.736-2.016 12.736a37.024 37.024 0 0 0-1.984 11.744c0 4.512 1.6 7.68 4.736 9.504 3.2 1.856 6.752 3.104 10.752 3.744 5.023.864 9.76 1.504 14.272 2.016 4.479.512 8.895 1.28 13.247 2.24 4.32 1.024 8.64 2.08 12.992 3.264 4.32 1.152 8.928 3.008 13.76 5.504.96.48 2.496 1.088 4.48 1.728l6.752 2.24c2.496.864 4.832 1.536 7.008 2.016a23.74 23.74 0 0 0 4.736.768Zm91.52-30.016c4.672 0 9.664-.48 15.008-1.504a113.262 113.262 0 0 0 31.232-10.752 82.832 82.832 0 0 0 12.992-8.224 7.059 7.059 0 0 0 1.024-1.504 9.717 9.717 0 0 0 .736-2.016v-.256c.992-3.648 1.824-7.68 2.496-12a274.466 274.466 0 0 0 1.76-13.248 287.97 287.97 0 0 1 1.76-13.248c.64-4.32 1.248-8.576 1.728-12.736.672-4.48 1.504-8.832 2.496-12.992 1.024-4.16 2.336-8.096 4-11.776a32.96 32.96 0 0 1 6.752-9.728 49.304 49.304 0 0 1 11.008-8v-.512l-.256-.736a9.284 9.284 0 0 1 1.504-4.768 44.909 44.909 0 0 1 3.744-5.248 18.639 18.639 0 0 1 4.768-4.256 30.354 30.354 0 0 1 5.248-2.496 313.01 313.01 0 0 0-3.264-12 158.571 158.571 0 0 1-3.008-12 227.131 227.131 0 0 0-2.976-15.232 94.305 94.305 0 0 0-3.52-11.52 42.116 42.116 0 0 0-5.76-10.24c-2.464-3.328-5.568-7.36-9.216-12a38.115 38.115 0 0 1-3.776-4.992 17.795 17.795 0 0 1-1.472-6.272 70.105 70.105 0 0 0-1.504-6.496 303.042 303.042 0 0 0-7.744-24 92.958 92.958 0 0 0-5.504-12.256 123.407 123.407 0 0 0-5.504-9.248c-1.664-2.496-3.424-3.744-5.248-3.744-4 0-8.768 1.6-14.272 4.768a601.439 601.439 0 0 0-17.472 10.496c-6.176 3.84-12.16 7.424-18.016 10.752-5.824 3.328-11.072 4.896-15.744 4.736a22.401 22.401 0 0 1-13.76-4.736 71.612 71.612 0 0 1-11.52-11.008c-3.488-4.16-6.4-7.744-8.736-10.752-2.336-3.008-4.064-4.672-5.248-4.992-1.312 0-2.08.992-2.24 2.976a82.237 82.237 0 0 0-.256 6.752v4.256c0 1.024-.16 1.664-.512 2.016-1.824 3.84-3.84 7.584-5.984 11.232a705.044 705.044 0 0 0-6.496 11.264 51.564 51.564 0 0 0-7.008 24.256c0 2.496.16 4.992.512 7.488.32 2.496 1.152 4.928 2.496 7.264l-.512.96a41.79 41.79 0 0 1-4.256 5.024 34.347 34.347 0 0 0-4.224 5.248 89.505 89.505 0 0 0-13.024 29.76 151.86 151.86 0 0 0-4 32.48c0 2.848.192 5.696.512 8.512.32 2.848.512 5.664.512 8.512a16.71 16.71 0 0 1-.256 2.752 16.93 16.93 0 0 0-.256 2.752A23.994 23.994 0 0 1 162.014 356c3.84 2.176 8 4.928 12.48 8.256a91.305 91.305 0 0 1 12.768 11.52c4 4.32 7.808 8.544 11.488 12.736 3.68 4.16 6.336 8.32 8 12.48 1.664 4.16 2.752 7.584 3.232 10.24a14.197 14.197 0 0 1-4 10.528 30.562 30.562 0 0 1-9.984 6.496c2.848 4.992 6.336 9.248 10.496 12.736a57.08 57.08 0 0 0 13.504 8.512c4.832 2.176 10.08 3.744 15.744 4.736a92.911 92.911 0 0 0 16.512 1.504Zm100.256 35.52c3.488 0 6.912-.512 10.24-1.504a52.775 52.775 0 0 0 14.24-6.496c4.352-2.848 8.32-6.336 12-10.528a98.256 98.256 0 0 1 31.264-24l8.256-3.744a69.766 69.766 0 0 0 8.224-4.256 30.742 30.742 0 0 0 5.28-4.224 8.186 8.186 0 0 0 2.496-6.016 9.435 9.435 0 0 0-.768-3.744 18.49 18.49 0 0 0-2.24-3.744 164.76 164.76 0 0 1-6.496-9.76 63.33 63.33 0 0 1-4.768-9.504l-4-9.984a82.012 82.012 0 0 1-3.52-11.264 8.951 8.951 0 0 0-1.728-3.232 16.965 16.965 0 0 0-14.72-7.52 17.053 17.053 0 0 0-8.512 2.24l-8.512 4.768a234.623 234.623 0 0 1-8.992 4.736 20.987 20.987 0 0 1-9.504 2.24 13.154 13.154 0 0 1-8.256-2.464 20.355 20.355 0 0 1-5.504-6.752 71.085 71.085 0 0 1-3.744-8.256L350.238 360a40.263 40.263 0 0 1-4.48 6.016 21.322 21.322 0 0 0-4 6.496c-2.176 4.992-3.52 10.56-4 16.736a478.468 478.468 0 0 1-3.264 28.256 150.392 150.392 0 0 1-6.72 27.52 61.378 61.378 0 0 0-2.016 8.736 92.561 92.561 0 0 0-1.024 9.248c0 8.16 2.528 14.912 7.52 20.256 4.992 5.312 11.744 8 20.256 8Z" fill="#000"/></svg>