<svg width="39" height="30" fill="none" xmlns="http://www.w3.org/2000/svg"><path d="M33.016 2.466A32.24 32.24 0 0 0 25.077.002a.122.122 0 0 0-.127.06c-.343.61-.723 1.407-.99 2.031a29.713 29.713 0 0 0-8.916 0A20.134 20.134 0 0 0 14.04.063a.124.124 0 0 0-.126-.061 32.02 32.02 0 0 0-7.94 2.464.1.1 0 0 0-.05.044C.867 10.064-.52 17.432.16 24.708a.137.137 0 0 0 .051.09 32.36 32.36 0 0 0 9.738 4.924.122.122 0 0 0 .137-.047 23.196 23.196 0 0 0 1.994-3.239.122.122 0 0 0-.069-.17 21.63 21.63 0 0 1-3.042-1.45.122.122 0 0 1-.048-.162.125.125 0 0 1 .036-.046c.205-.154.41-.314.605-.475a.121.121 0 0 1 .124-.017c6.384 2.915 13.294 2.915 19.6 0a.127.127 0 0 1 .129.017c.195.16.4.321.604.475a.124.124 0 0 1 .034.164.124.124 0 0 1-.043.043 20.123 20.123 0 0 1-3.045 1.448.121.121 0 0 0-.08.124.127.127 0 0 0 .014.05 25.924 25.924 0 0 0 1.992 3.238.122.122 0 0 0 .136.047 32.256 32.256 0 0 0 9.753-4.924.118.118 0 0 0 .05-.09c.815-8.412-1.362-15.72-5.766-22.196a.084.084 0 0 0-.049-.046Zm-19.982 17.81c-1.924 0-3.506-1.764-3.506-3.929 0-2.167 1.553-3.931 3.506-3.931 1.967 0 3.534 1.78 3.505 3.931 0 2.165-1.553 3.93-3.505 3.93Zm12.957 0c-1.92 0-3.505-1.764-3.505-3.929 0-2.167 1.553-3.931 3.505-3.931 1.967 0 3.537 1.78 3.505 3.931 0 2.165-1.538 3.93-3.505 3.93Z" fill="#000"/></svg>