<svg xmlns="http://www.w3.org/2000/svg" width="1920" height="1236" fill="none"><g stroke="#65cb88" stroke-opacity=".35"><path d="M2011.67 1005.43c-195.71-250.01-519.29-2.39-1044.741-373.034" stroke-width="1.04"/><path d="M976.362 635.001C1475.55 780.303 1709.24 422.015 1996.95 849.73M963.178 626.205c508.182-97.367 456.032-414.262 1005.462-450.294M971.069 627.492c485.241 16.677 507.651-299.796 1016.971-215.096M-26.398 258.144c185.064 235.982 490.594 2.528 987.257 352.507m-9.449-2.569C442.254 460.684 205.909 818.412-89.166 389.148m1053.76 227.729C462.409 711.556 515.948 1027.83-27.42 1061.15m984.124-445.56c-473.111-19.242-492.717 296.638-989.79 209.346" stroke-width=".981"/></g><g fill="#fff"><path d="M585.949 422.704c-.198 3.255-3.042 5.736-6.353 5.541l-4.772-.28-1.803 29.703c-.355 5.845-5.464 10.299-11.41 9.95s-10.479-5.369-10.124-11.214 5.463-10.299 11.409-9.95a10.87 10.87 0 0 1 4.824 1.441l1.312-21.597c.35-5.779 5.401-10.183 11.279-9.838 3.311.195 5.835 2.99 5.638 6.244zm963.031 1.024c-.33 5.481-5.13 9.659-10.7 9.332l-8.04-.472-3.04 50.025c-.59 9.844-9.2 17.347-19.21 16.759-10.02-.588-17.65-9.044-17.05-18.888.59-9.843 9.2-17.346 19.21-16.758 2.97.174 5.73 1.04 8.13 2.427l2.21-36.374c.59-9.732 9.09-17.149 18.99-16.568 5.58.327 9.83 5.036 9.5 10.517zm45.29 363.966c-.41 6.766-6.32 11.923-13.21 11.519l-9.92-.582-3.75 61.75c-.74 12.151-11.36 21.412-23.72 20.686s-21.78-11.163-21.05-23.314c.74-12.151 11.36-21.412 23.72-20.686 3.67.215 7.07 1.283 10.03 2.996l2.73-44.899c.73-12.013 11.23-21.169 23.45-20.452 6.88.404 12.13 6.216 11.72 12.982zm-246.53-351.307c-.19 3.254-3.04 5.735-6.35 5.54l-4.77-.28-1.81 29.703c-.35 5.845-5.46 10.299-11.4 9.95-5.95-.349-10.48-5.369-10.13-11.214.36-5.845 5.46-10.299 11.41-9.95 1.76.103 3.4.617 4.82 1.441l1.32-21.597c.35-5.779 5.4-10.183 11.28-9.838 3.31.195 5.83 2.99 5.63 6.245zM255.112 771.527c-.395 6.509-6.084 11.471-12.706 11.082l-9.543-.56-3.607 59.405c-.71 11.69-10.926 20.599-22.819 19.901s-20.959-10.739-20.249-22.429 10.927-20.598 22.819-19.9a21.75 21.75 0 0 1 9.648 2.882l2.623-43.194c.702-11.557 10.802-20.365 22.559-19.675 6.623.389 11.67 5.98 11.275 12.488zm1099.938-140.07c-.26 4.283-4.01 7.547-8.36 7.291l-6.28-.369-2.37 39.083c-.47 7.69-7.19 13.552-15.02 13.092-7.82-.459-13.78-7.065-13.32-14.755.47-7.691 7.19-13.552 15.02-13.093a14.29 14.29 0 0 1 6.34 1.897l1.73-28.418c.46-7.603 7.1-13.398 14.84-12.944 4.36.256 7.68 3.934 7.42 8.216zm-812.361 93.767c.288-.274.489-.657.506-1.133l1.846-31.369c.101-1.273-1.254-1.957-2.334-1.509-4.089 1.678-8.451 2.805-12.662 4.162l-11.813 3.992c-.511-.542-1.595-.419-1.665.541-.437 6.03-.474 12.084-.402 18.122.061 5.222.031 10.591.541 15.828-4.021-.015-8.576.578-11.442 3.351-3.116 3.001-1.896 7.653 1.938 9.389 3.972 1.802 9.412-.308 12.108-3.416 1.284-1.47 2.065-3.424 1.377-5.336a4.443 4.443 0 0 0-.551-1.055c.242-.288.394-.639.392-1-.195-5.951-.98-11.914-1.305-17.861l-.316-7.074c1.624-.44 3.182-1.162 4.754-1.732a149.47 149.47 0 0 1 5.956-2.022 116.28 116.28 0 0 1 5.648-1.656c1.816-.486 3.716-.793 5.492-1.398-.484 5.633-.886 11.27-1.062 16.897-3.273-1.238-7.068-.694-9.659 2.037-3.399 3.578-3.041 9.364 1.863 11.408 4.407 1.839 10.325-.731 11.404-5.457.314-1.458.035-2.706-.614-3.709zm-34.56 16.43c.002-.035.016-.069.018-.103.057.817.364 1.602.931 2.205-.73-.252-1.165-.882-.949-2.102zm9.734-.556a6.87 6.87 0 0 0 .596-1.244c-.098.448-.312.854-.596 1.244zm22.115-40.408c-1.999.208-4.046.983-5.962 1.556a128.187 128.187 0 0 0-5.758 1.894c-3.095 1.097-6.559 2.242-9.467 3.943l-.267-7.281c4.213-1.008 8.386-2.123 12.559-3.25 3.489-.946 6.988-2.077 10.516-2.905l-.592 6.254a1.655 1.655 0 0 0-1.029-.211zm-.736 29.074a4.34 4.34 0 0 1-1.121.934c.8-.709 1.42-1.567 1.7-2.481.078-.1.143-.212.209-.313-.013.592-.265 1.24-.788 1.86zm1204.168-28.468c.45-.423.76-1.017.78-1.753l2.86-48.54c.16-1.97-1.94-3.028-3.61-2.335-6.33 2.597-13.08 4.341-19.6 6.441l-18.27 6.175c-.8-.837-2.47-.648-2.58.838-.68 9.332-.73 18.699-.62 28.041.09 8.082.04 16.389.83 24.493-6.22-.023-13.27.894-17.7 5.185-4.82 4.645-2.94 11.843 3 14.529 6.14 2.789 14.56-.476 18.73-5.285 1.99-2.276 3.2-5.299 2.13-8.257-.22-.589-.49-1.145-.85-1.633.38-.446.61-.989.61-1.547-.3-9.21-1.52-18.436-2.02-27.639l-.49-10.946c2.51-.68 4.92-1.798 7.36-2.68 3.05-1.116 6.11-2.142 9.21-3.129 2.9-.927 5.8-1.782 8.74-2.562 2.81-.753 5.75-1.228 8.5-2.163-.75 8.715-1.37 17.438-1.64 26.145-5.07-1.915-10.94-1.073-14.95 3.152-5.26 5.537-4.7 14.491 2.88 17.653 6.82 2.846 15.98-1.131 17.65-8.443.49-2.256.05-4.188-.95-5.74zm-53.48 25.424c.01-.054.03-.107.03-.16.09 1.264.56 2.479 1.44 3.412-1.13-.39-1.8-1.365-1.47-3.252zm15.07-.86c.36-.626.69-1.273.92-1.925-.15.693-.49 1.321-.92 1.925zm34.22-62.528c-3.1.321-6.27 1.521-9.23 2.408a203.68 203.68 0 0 0-8.91 2.93c-4.79 1.698-10.15 3.469-14.65 6.101l-.41-11.266c6.52-1.559 12.97-3.285 19.43-5.028 5.4-1.465 10.81-3.215 16.27-4.495l-.91 9.677a2.566 2.566 0 0 0-1.59-.327zm-1.14 44.99a6.779 6.779 0 0 1-1.74 1.445c1.24-1.097 2.2-2.426 2.63-3.839.12-.155.22-.329.33-.485-.02.916-.41 1.919-1.22 2.879zM355.915 419.012a2.914 2.914 0 0 0 .916-2.049l3.339-56.745c.183-2.302-2.268-3.539-4.221-2.728-7.397 3.035-15.288 5.074-22.906 7.528l-21.367 7.22c-.925-.979-2.886-.758-3.013.98-.791 10.908-.856 21.859-.727 32.78.111 9.447.056 19.158.978 28.633-7.273-.028-15.513 1.044-20.697 6.06-5.637 5.43-3.43 13.845 3.506 16.985 7.184 3.261 17.025-.557 21.903-6.178 2.323-2.661 3.736-6.195 2.49-9.653a8.03 8.03 0 0 0-.996-1.909c.438-.521.712-1.156.709-1.809-.353-10.765-1.774-21.551-2.362-32.309l-.57-12.797c2.936-.795 5.755-2.101 8.6-3.133a267.98 267.98 0 0 1 10.772-3.657 211.17 211.17 0 0 1 10.218-2.996c3.285-.879 6.721-1.434 9.933-2.528-.875 10.188-1.601 20.385-1.92 30.564-5.92-2.239-12.785-1.254-17.472 3.685-6.149 6.473-5.501 16.94 3.37 20.636 7.972 3.328 18.677-1.322 20.629-9.87.567-2.637.062-4.896-1.112-6.71zm-62.516 29.721c.004-.063.03-.124.033-.187.103 1.478.659 2.898 1.684 3.989-1.321-.456-2.107-1.596-1.717-3.802zm17.609-1.006c.43-.731.818-1.487 1.078-2.25-.177.81-.564 1.544-1.078 2.25zm40.005-73.096c-3.618.376-7.32 1.778-10.785 2.815a233.733 233.733 0 0 0-10.416 3.426c-5.599 1.985-11.866 4.056-17.125 7.133l-.484-13.171c7.622-1.823 15.17-3.84 22.719-5.878 6.31-1.712 12.641-3.758 19.023-5.255l-1.072 11.313a3.005 3.005 0 0 0-1.86-.383zm-1.332 52.594c-.531.642-1.229 1.211-2.028 1.689 1.447-1.281 2.569-2.835 3.075-4.487.14-.181.259-.384.378-.567-.023 1.071-.479 2.243-1.425 3.365zM1624.7 315.676c.52-.495.89-1.189.92-2.049l3.34-56.745c.18-2.302-2.27-3.539-4.23-2.729-7.39 3.036-15.28 5.075-22.9 7.529l-21.37 7.22c-.92-.98-2.88-.758-3.01.979-.79 10.909-.86 21.86-.73 32.781.11 9.447.06 19.158.98 28.633-7.27-.028-15.51 1.044-20.7 6.06-5.63 5.43-3.43 13.845 3.51 16.985 7.18 3.26 17.02-.557 21.9-6.179 2.32-2.66 3.74-6.194 2.49-9.652-.26-.688-.58-1.338-.99-1.909.43-.521.71-1.157.7-1.809-.35-10.765-1.77-21.551-2.36-32.309l-.57-12.797c2.94-.795 5.76-2.101 8.6-3.133a271.14 271.14 0 0 1 10.77-3.657 215.65 215.65 0 0 1 10.22-2.996c3.29-.879 6.72-1.435 9.94-2.529-.88 10.189-1.61 20.386-1.92 30.565-5.92-2.239-12.79-1.255-17.48 3.685-6.15 6.473-5.5 16.94 3.37 20.636 7.98 3.327 18.68-1.322 20.63-9.87.57-2.637.06-4.896-1.11-6.71zm-62.51 29.721c0-.063.02-.125.03-.187.1 1.478.66 2.898 1.68 3.989-1.32-.457-2.11-1.596-1.71-3.802zm17.6-1.006c.43-.732.82-1.487 1.08-2.25-.18.81-.56 1.544-1.08 2.25zm40.01-73.096c-3.62.376-7.32 1.778-10.79 2.815a234.35 234.35 0 0 0-10.41 3.426c-5.6 1.984-11.87 4.056-17.13 7.132l-.48-13.17c7.62-1.823 15.17-3.84 22.72-5.878 6.31-1.712 12.64-3.758 19.02-5.255l-1.07 11.312a3.013 3.013 0 0 0-1.86-.382zm-1.33 52.594c-.53.641-1.23 1.21-2.03 1.689 1.45-1.282 2.57-2.835 3.07-4.487.14-.181.26-.385.38-.567-.02 1.071-.48 2.243-1.42 3.365zM304.05 994.503a2.67 2.67 0 0 0 .839-1.876l3.057-51.959c.167-2.108-2.077-3.241-3.865-2.499-6.773 2.78-13.999 4.646-20.974 6.894l-19.566 6.611c-.847-.897-2.642-.694-2.758.897-.724 9.988-.784 20.016-.666 30.015.101 8.651.051 17.544.896 26.214-6.66-.02-14.205.96-18.952 5.55-5.161 4.98-3.141 12.68 3.21 15.56 6.579 2.98 15.589-.51 20.056-5.66 2.127-2.44 3.421-5.67 2.281-8.84a7.576 7.576 0 0 0-.913-1.75c.401-.47.652-1.06.649-1.65-.323-9.86-1.624-19.738-2.162-29.589l-.523-11.717c2.689-.728 5.27-1.924 7.875-2.868a246.528 246.528 0 0 1 9.864-3.35 193.516 193.516 0 0 1 9.356-2.743c3.008-.805 6.154-1.313 9.096-2.315-.802 9.329-1.467 18.666-1.759 27.987-5.42-2.05-11.706-1.149-15.998 3.374-5.631 5.927-5.037 15.511 3.085 18.891 7.301 3.05 17.102-1.21 18.89-9.03.519-2.418.057-4.486-1.018-6.147zm-57.244 27.217c.004-.06.027-.12.031-.17.094 1.35.602 2.65 1.541 3.65-1.209-.42-1.929-1.46-1.572-3.48zm16.124-.92c.394-.67.749-1.37.987-2.06-.162.74-.516 1.41-.987 2.06zm36.631-66.935c-3.313.345-6.702 1.628-9.876 2.578a212.83 212.83 0 0 0-9.537 3.137c-5.126 1.817-10.865 3.713-15.681 6.531l-.443-12.06c6.979-1.67 13.891-3.517 20.804-5.383 5.777-1.567 11.574-3.441 17.418-4.811l-.982 10.358a2.752 2.752 0 0 0-1.703-.35zm-1.219 48.155c-.487.59-1.126 1.11-1.858 1.55 1.326-1.17 2.353-2.6 2.816-4.109.129-.166.238-.352.346-.519-.02.981-.439 2.058-1.304 3.078zM1386.78 813.899a2.07 2.07 0 0 0 .65-1.457l2.37-40.336c.13-1.637-1.61-2.516-3-1.94-5.25 2.158-10.86 3.607-16.28 5.352l-15.19 5.132c-.65-.696-2.05-.539-2.14.696-.56 7.754-.61 15.539-.52 23.302.08 6.715.04 13.618.7 20.353-5.17-.019-11.03.743-14.71 4.308-4.01 3.86-2.44 9.842 2.49 12.074 5.11 2.318 12.1-.396 15.57-4.392 1.65-1.891 2.65-4.403 1.77-6.861-.18-.49-.41-.951-.71-1.357.31-.371.51-.822.51-1.286-.26-7.653-1.27-15.32-1.68-22.967l-.41-9.097c2.09-.565 4.09-1.493 6.11-2.226 2.54-.928 5.09-1.78 7.66-2.6 2.41-.771 4.82-1.481 7.26-2.13 2.34-.625 4.78-1.02 7.07-1.797-.63 7.242-1.14 14.491-1.37 21.727-4.21-1.592-9.09-.892-12.42 2.619-4.37 4.601-3.91 12.042 2.4 14.669 5.66 2.365 13.27-.94 14.66-7.017.4-1.874.04-3.48-.79-4.769zm-44.44 21.127c0-.045.02-.089.02-.133.08 1.05.47 2.06 1.2 2.835-.94-.324-1.5-1.134-1.22-2.702zm12.52-.715c.3-.52.58-1.057.76-1.599-.12.575-.4 1.097-.76 1.599zm28.44-51.96c-2.58.267-5.21 1.264-7.67 2.001-2.48.751-4.95 1.563-7.4 2.435-3.98 1.411-8.44 2.883-12.18 5.07l-.34-9.362c5.42-1.296 10.78-2.73 16.15-4.178 4.48-1.217 8.98-2.672 13.52-3.736l-.76 8.042a2.132 2.132 0 0 0-1.32-.272zm-.95 37.386c-.38.456-.87.861-1.44 1.201 1.03-.911 1.82-2.015 2.18-3.19a4.57 4.57 0 0 0 .27-.403c-.01.762-.34 1.594-1.01 2.392zM642.855 587.283c.201-.191.341-.458.353-.79l1.287-21.877c.071-.888-.874-1.365-1.627-1.052-2.852 1.17-5.894 1.956-8.831 2.902l-8.238 2.784c-.357-.378-1.113-.292-1.162.377-.305 4.206-.33 8.428-.28 12.639.042 3.642.021 7.386.377 11.039-2.804-.011-5.981.403-7.98 2.336-2.173 2.094-1.322 5.338 1.352 6.549 2.77 1.257 6.564-.215 8.444-2.382.896-1.026 1.441-2.388.961-3.722a3.12 3.12 0 0 0-.385-.736c.169-.201.275-.446.274-.697-.136-4.151-.684-8.309-.911-12.457l-.22-4.933c1.133-.307 2.219-.811 3.316-1.208a103.44 103.44 0 0 1 4.153-1.41 81.166 81.166 0 0 1 3.94-1.155c1.266-.339 2.591-.553 3.829-.975-.337 3.928-.617 7.859-.74 11.784-2.282-.864-4.929-.484-6.736 1.42-2.371 2.496-2.121 6.532 1.299 7.956 3.074 1.283 7.201-.509 7.953-3.805.219-1.017.024-1.887-.428-2.587zm-24.103 11.459c.002-.024.012-.048.013-.072.04.569.254 1.117.649 1.538-.509-.176-.812-.616-.662-1.466zm6.789-.388c.166-.282.316-.573.416-.867a2.332 2.332 0 0 1-.416.867zm15.424-28.182c-1.395.146-2.822.686-4.158 1.086a89.257 89.257 0 0 0-4.016 1.321c-2.159.765-4.575 1.563-6.603 2.749l-.186-5.077c2.939-.703 5.849-1.481 8.759-2.267 2.433-.66 4.874-1.448 7.334-2.026l-.413 4.362a1.16 1.16 0 0 0-.717-.148zm-.514 20.278a3.024 3.024 0 0 1-.782.651c.558-.494.991-1.093 1.186-1.73.054-.07.1-.148.145-.219-.008.413-.184.865-.549 1.298zm539.129 76.261a1.12 1.12 0 0 0 .35-.79l1.29-21.877c.07-.888-.88-1.365-1.63-1.052-2.85 1.17-5.89 1.956-8.83 2.902l-8.24 2.784c-.36-.378-1.11-.292-1.16.377-.31 4.206-.33 8.428-.28 12.639.04 3.642.02 7.386.38 11.039-2.81-.011-5.99.403-7.98 2.336-2.18 2.094-1.33 5.338 1.35 6.549 2.77 1.257 6.56-.215 8.44-2.382.9-1.026 1.44-2.388.96-3.722-.1-.265-.22-.516-.38-.736.17-.201.27-.446.27-.697-.13-4.151-.68-8.309-.91-12.457l-.22-4.933c1.13-.307 2.22-.811 3.32-1.208 1.37-.503 2.75-.965 4.15-1.41 1.3-.418 2.61-.803 3.94-1.155 1.27-.339 2.59-.553 3.83-.975-.34 3.928-.62 7.859-.74 11.784-2.28-.864-4.93-.484-6.74 1.42-2.37 2.496-2.12 6.532 1.3 7.956 3.08 1.283 7.2-.509 7.96-3.805.21-1.017.02-1.887-.43-2.587zm-24.11 11.459c.01-.024.02-.048.02-.072.04.569.25 1.117.65 1.538-.51-.176-.82-.616-.67-1.466zm6.79-.388c.17-.282.32-.573.42-.867-.07.312-.22.595-.42.867zm15.43-28.182c-1.4.146-2.83.686-4.16 1.086-1.35.407-2.68.848-4.02 1.321-2.16.765-4.57 1.563-6.6 2.749l-.19-5.077c2.94-.703 5.85-1.481 8.76-2.267 2.44-.66 4.88-1.448 7.34-2.026l-.42 4.362a1.14 1.14 0 0 0-.71-.148zm-.52 20.278c-.2.247-.47.466-.78.651.56-.494.99-1.093 1.19-1.73.05-.07.1-.148.14-.219-.01.413-.18.865-.55 1.298zm-493.492-14.271c-1.758-1.61-4.102-2.378-6.415-1.883l-2.157-8.15.18-.223 2.915-3.753c.84-1.096 1.635-2.24 2.164-3.517.865-2.098.618-4.682-1.215-6.226-1.923-1.643-4.742-.839-6.085 1.091-1.706 2.446-1.2 5.863-.832 8.628.21 1.625.517 3.231.884 4.817l-5.196 6.843c-1.673 2.482-3.076 5.215-3.459 8.194-.324 2.596.125 5.391 1.694 7.562 2.524 3.476 6.913 4.248 10.862 3.253a211.98 211.98 0 0 1-.24 5.522c-.143 2.759-.451 5.673-2.045 8.031-.654.966-1.74 2.012-2.922 2.293s-2.509.18-3.486-.578c-.898-.684-1.234-1.813-1.06-2.9.185-1.099 1.056-2.309 2.324-2.246.759.044 1.19.782 1.22 1.461.038.75-.383 1.414-.754 2.034-.847 1.411 1.646 2.269 1.877.625.188-1.344.335-2.97-.719-4.025-.819-.807-2.103-.824-3.044-.214-1.621 1.05-1.865 3.499-.779 5 1.459 2.024 4.436 2.152 6.595 1.263 1.256-.51 2.375-1.706 3.075-2.844.818-1.331 1.267-2.858 1.55-4.383.304-1.675.384-3.376.474-5.063l.206-4.765c.709-.32 1.387-.701 2.019-1.131 1.229-.839 2.272-1.759 3.119-2.982a10.96 10.96 0 0 0 1.757-4.253c.473-2.705-.457-5.598-2.507-7.481zm-8.022-22.824c1.064-.673 2.262-.428 3.062.495.868.985 1.105 2.365.815 3.621-.353 1.498-1.263 2.787-2.182 4.007l-2.557 3.33a57.638 57.638 0 0 1-.552-2.847c-.424-2.618-1.308-6.862 1.414-8.606zm-2.561 38.856c-2.614-.247-5.074-1.641-6.374-3.924-2.871-5.015-.121-10.74 2.918-14.965 1.222-1.703 2.5-3.368 3.778-5.021l.682 2.667 1.081 4.14c-1.852 1.117-3.149 3.085-3.104 5.283.021 1.216.472 2.41 1.173 3.409.098.146.31-.017.247-.161-1.152-2.368-.592-5.523 1.531-7.186.137-.108.274-.206.41-.291l.775 3.491c.588 3.047.842 6.111.868 9.207l-.024 2.755c-1.255.487-2.589.724-3.961.596zm10.981-9.27c-.157 1.205-.634 2.403-1.245 3.453-.651 1.13-1.506 2.283-2.487 3.16a11.84 11.84 0 0 1-1.038.838c.034-3.105-.099-6.207-.566-9.283-.298-1.944-.729-3.85-1.208-5.758 1.525-.249 3.131.137 4.35 1.213 1.864 1.616 2.504 4.001 2.194 6.377zm553.394 102.906c-1.76-1.61-4.1-2.378-6.41-1.883l-2.16-8.15.18-.223 2.92-3.753c.83-1.095 1.63-2.24 2.16-3.516.86-2.099.62-4.682-1.22-6.227-1.92-1.642-4.74-.838-6.08 1.092-1.71 2.445-1.2 5.862-.83 8.628.21 1.624.51 3.23.88 4.817l-5.2 6.842c-1.67 2.483-3.07 5.215-3.45 8.194-.33 2.597.12 5.391 1.69 7.562 2.52 3.477 6.91 4.248 10.86 3.254-.05 1.842-.14 3.682-.24 5.521-.14 2.76-.45 5.673-2.04 8.032-.66.966-1.74 2.012-2.93 2.293-1.18.281-2.5.179-3.48-.579-.9-.683-1.23-1.812-1.06-2.9.18-1.098 1.05-2.309 2.32-2.246.76.045 1.19.782 1.22 1.462.04.749-.38 1.414-.75 2.034-.85 1.41 1.64 2.269 1.88.624.18-1.344.33-2.97-.72-4.025-.82-.807-2.11-.824-3.05-.213-1.62 1.049-1.86 3.499-.78 4.999 1.46 2.024 4.44 2.152 6.6 1.263 1.25-.51 2.37-1.706 3.07-2.844.82-1.33 1.27-2.857 1.55-4.382.31-1.675.39-3.376.48-5.064l.2-4.765c.71-.32 1.39-.701 2.02-1.131 1.23-.839 2.27-1.758 3.12-2.981a11.022 11.022 0 0 0 1.76-4.254c.47-2.705-.46-5.597-2.51-7.481zm-8.02-22.824c1.06-.673 2.26-.427 3.06.495.87.986 1.11 2.366.82 3.622-.36 1.498-1.27 2.787-2.18 4.006l-2.56 3.33c-.21-.946-.4-1.892-.55-2.847-.43-2.617-1.31-6.862 1.41-8.606zm-2.56 38.857c-2.61-.247-5.08-1.641-6.38-3.925-2.87-5.015-.12-10.739 2.92-14.964 1.22-1.703 2.5-3.368 3.78-5.022l.68 2.668 1.08 4.139c-1.85 1.118-3.15 3.085-3.1 5.284.02 1.215.47 2.41 1.17 3.408.1.146.31-.017.25-.16-1.15-2.369-.59-5.524 1.53-7.186.14-.109.27-.206.41-.291a103.43 103.43 0 0 1 .78 3.49c.58 3.048.84 6.111.86 9.207a84.08 84.08 0 0 1-.02 2.755c-1.26.487-2.59.724-3.96.597zm10.98-9.271c-.16 1.205-.63 2.404-1.24 3.454-.66 1.13-1.51 2.282-2.49 3.159a12.49 12.49 0 0 1-1.04.838c.03-3.104-.1-6.207-.57-9.282-.29-1.945-.73-3.85-1.2-5.759 1.52-.249 3.13.137 4.35 1.213 1.86 1.616 2.5 4.001 2.19 6.377zM310.606 606.881c-4.313-3.95-10.064-5.835-15.741-4.621l-5.294-19.998c.157-.191.286-.385.442-.548l7.155-9.209c2.059-2.688 4.01-5.496 5.309-8.629 2.123-5.149 1.516-11.49-2.982-15.279-4.717-4.031-11.637-2.058-14.93 2.678-4.187 6.001-2.945 14.385-2.044 21.173.516 3.985 1.27 7.927 2.171 11.82-4.361 5.505-8.808 10.975-12.751 16.791-4.105 6.092-7.548 12.797-8.488 20.107-.795 6.372.306 13.229 4.156 18.556 6.194 8.531 16.965 10.424 26.656 7.984-.129 4.521-.344 9.036-.59 13.55-.352 6.771-1.107 13.92-5.019 19.709-1.603 2.37-4.269 4.936-7.17 5.626s-6.156.441-8.553-1.42c-2.203-1.677-3.028-4.447-2.603-7.116.456-2.696 2.591-5.666 5.705-5.512 1.861.109 2.918 1.92 2.992 3.587.093 1.839-.94 3.469-1.85 4.992-2.078 3.461 4.04 5.567 4.606 1.531.463-3.297.821-7.288-1.764-9.876-2.01-1.981-5.16-2.022-7.469-.524-3.979 2.575-4.578 8.586-1.912 12.268 3.579 4.967 10.885 5.281 16.184 3.099 3.082-1.252 5.828-4.186 7.544-6.979 2.008-3.264 3.111-7.011 3.805-10.753.746-4.112.941-8.285 1.163-12.427l.506-11.691a33.065 33.065 0 0 0 4.954-2.776c3.015-2.059 5.574-4.316 7.653-7.317a26.88 26.88 0 0 0 4.311-10.437c1.162-6.638-1.121-13.736-6.152-18.359zm-19.684-56.007c2.611-1.652 5.551-1.05 7.515 1.215 2.129 2.417 2.711 5.804 1.999 8.887-.865 3.675-3.1 6.839-5.354 9.83l-6.275 8.173c-.501-2.323-.973-4.643-1.356-6.987-1.04-6.423-3.209-16.839 3.471-21.118zm-6.285 95.35c-6.413-.606-12.451-4.027-15.642-9.631-7.044-12.306-.296-26.353 7.162-36.72 2.997-4.18 6.135-8.266 9.27-12.323l1.675 6.546 2.651 10.158c-4.544 2.742-7.726 7.57-7.616 12.965.052 2.983 1.159 5.914 2.877 8.364.242.358.762-.041.608-.394-2.828-5.811-1.453-13.554 3.756-17.633.337-.267.672-.506 1.006-.715l1.902 8.566c1.443 7.479 2.067 14.995 2.131 22.593l-.06 6.76c-3.079 1.195-6.354 1.776-9.72 1.464zm26.946-22.749c-.384 2.957-1.554 5.898-3.053 8.475-1.598 2.772-3.697 5.601-6.104 7.752a29.083 29.083 0 0 1-2.547 2.057c.083-7.618-.242-15.232-1.389-22.779-.732-4.771-1.79-9.447-2.965-14.13 3.743-.612 7.684.336 10.675 2.976 4.575 3.966 6.146 9.818 5.383 15.649zM1707.62 428.877c-4.32-3.95-10.07-5.835-15.74-4.621l-5.3-19.999c.16-.191.29-.384.44-.547l7.16-9.209c2.06-2.688 4.01-5.497 5.31-8.63 2.12-5.149 1.51-11.489-2.98-15.278-4.72-4.031-11.64-2.059-14.93 2.677-4.19 6.002-2.95 14.386-2.05 21.173.52 3.986 1.27 7.927 2.17 11.821-4.36 5.504-8.8 10.975-12.75 16.79-4.1 6.093-7.55 12.797-8.49 20.107-.79 6.373.31 13.229 4.16 18.557 6.19 8.531 16.96 10.424 26.66 7.984l-.59 13.55c-.36 6.771-1.11 13.92-5.02 19.708-1.61 2.371-4.27 4.937-7.17 5.626-2.91.69-6.16.441-8.56-1.419-2.2-1.677-3.02-4.448-2.6-7.117.46-2.695 2.59-5.665 5.71-5.511 1.86.109 2.91 1.919 2.99 3.586.09 1.839-.94 3.47-1.85 4.992-2.08 3.461 4.04 5.568 4.6 1.532.47-3.298.83-7.288-1.76-9.876-2.01-1.981-5.16-2.023-7.47-.525-3.98 2.576-4.58 8.587-1.91 12.268 3.58 4.968 10.88 5.282 16.18 3.1 3.08-1.252 5.83-4.186 7.55-6.979 2.01-3.265 3.11-7.012 3.8-10.754.75-4.111.94-8.284 1.17-12.426l.5-11.692a33.35 33.35 0 0 0 4.96-2.776c3.01-2.058 5.57-4.315 7.65-7.317a26.89 26.89 0 0 0 4.31-10.436c1.16-6.638-1.12-13.736-6.15-18.359zm-19.69-56.007c2.61-1.653 5.55-1.05 7.52 1.214 2.13 2.418 2.71 5.805 2 8.887-.87 3.675-3.1 6.839-5.36 9.831l-6.27 8.172c-.5-2.322-.97-4.643-1.36-6.986-1.04-6.424-3.21-16.839 3.47-21.118zm-6.28 95.35c-6.42-.606-12.45-4.027-15.64-9.631-7.05-12.306-.3-26.354 7.16-36.721 3-4.18 6.13-8.265 9.27-12.323l1.67 6.547 2.65 10.157c-4.54 2.743-7.72 7.57-7.61 12.965.05 2.983 1.16 5.914 2.88 8.365.24.358.76-.041.6-.394-2.82-5.812-1.45-13.555 3.76-17.634.34-.267.67-.505 1.01-.714l1.9 8.566c1.44 7.478 2.06 14.995 2.13 22.592l-.06 6.761c-3.08 1.194-6.36 1.776-9.72 1.464zm26.94-22.75c-.38 2.958-1.55 5.898-3.05 8.476-1.6 2.772-3.7 5.601-6.1 7.752a28.12 28.12 0 0 1-2.55 2.057c.08-7.618-.24-15.232-1.39-22.779-.73-4.772-1.79-9.447-2.96-14.13 3.74-.612 7.68.336 10.67 2.976 4.58 3.965 6.15 9.818 5.38 15.648zM492.361 878.178c-3.629-3.323-8.467-4.909-13.243-3.887l-4.453-16.825c.132-.16.24-.323.371-.46l6.019-7.747c1.733-2.262 3.374-4.625 4.467-7.26 1.786-4.332 1.275-9.666-2.509-12.854-3.968-3.391-9.789-1.732-12.56 2.253-3.522 5.049-2.477 12.102-1.719 17.812.434 3.353 1.068 6.669 1.826 9.944-3.669 4.631-7.41 9.233-10.727 14.126-3.454 5.125-6.35 10.765-7.141 16.915-.669 5.361.257 11.129 3.496 15.611 5.212 7.177 14.272 8.769 22.426 6.717-.109 3.803-.29 7.601-.497 11.399-.296 5.696-.931 11.71-4.223 16.58-1.348 1.994-3.59 4.153-6.032 4.733s-5.178.371-7.195-1.194c-1.853-1.411-2.547-3.741-2.189-5.987.383-2.268 2.18-4.766 4.799-4.637 1.566.092 2.455 1.615 2.517 3.018.078 1.547-.791 2.919-1.556 4.199-1.748 2.912 3.398 4.684 3.874 1.289.39-2.774.692-6.132-1.484-8.309-1.691-1.666-4.34-1.701-6.282-.441-3.348 2.167-3.852 7.224-1.609 10.321 3.011 4.179 9.157 4.443 13.615 2.607 2.592-1.053 4.903-3.521 6.347-5.871 1.689-2.746 2.617-5.898 3.201-9.047.627-3.458.791-6.969.978-10.453l.426-9.836a27.833 27.833 0 0 0 4.168-2.336c2.535-1.732 4.689-3.63 6.437-6.155a22.6 22.6 0 0 0 3.627-8.78c.977-5.585-.943-11.556-5.175-15.445zm-16.56-47.117c2.196-1.39 4.67-.883 6.322 1.022 1.791 2.034 2.281 4.883 1.682 7.476-.728 3.092-2.608 5.754-4.504 8.27l-5.279 6.875c-.422-1.954-.819-3.905-1.141-5.877-.875-5.404-2.7-14.166 2.92-17.766zm-5.287 80.215c-5.396-.51-10.475-3.388-13.159-8.102-5.927-10.353-.25-22.171 6.024-30.892 2.522-3.516 5.161-6.954 7.799-10.367l1.409 5.507 2.231 8.545c-3.823 2.307-6.5 6.369-6.408 10.907.045 2.51.975 4.976 2.421 7.037.203.302.641-.034.512-.331-2.38-4.889-1.223-11.403 3.159-14.835.284-.224.566-.425.846-.601l1.601 7.206c1.213 6.292 1.738 12.615 1.792 19.007l-.05 5.687c-2.59 1.005-5.346 1.495-8.177 1.232zm22.669-19.138c-.323 2.488-1.308 4.962-2.569 7.13-1.345 2.332-3.11 4.712-5.135 6.521a24.503 24.503 0 0 1-2.142 1.731c.069-6.409-.205-12.814-1.169-19.163-.616-4.015-1.506-7.948-2.495-11.888 3.15-.514 6.465.283 8.981 2.504 3.849 3.336 5.17 8.26 4.529 13.165zm206.079-418.989c-1.78-1.63-4.154-2.408-6.497-1.907l-2.184-8.253.182-.226 2.953-3.801c.85-1.109 1.655-2.268 2.191-3.561.876-2.125.625-4.742-1.231-6.305-1.947-1.664-4.802-.85-6.161 1.105-1.728 2.476-1.216 5.937-.844 8.738.213 1.645.524 3.271.896 4.878l-5.262 6.929c-1.695 2.515-3.115 5.282-3.503 8.298-.328 2.63.126 5.46 1.715 7.659 2.556 3.521 7.001 4.302 11.001 3.295a212.962 212.962 0 0 1-.244 5.592c-.145 2.794-.457 5.745-2.071 8.133-.662.979-1.762 2.038-2.959 2.322s-2.541.182-3.53-.585c-.909-.692-1.25-1.836-1.074-2.937.188-1.113 1.069-2.339 2.354-2.275.768.045 1.204.792 1.235 1.48.038.759-.388 1.432-.763 2.06-.858 1.429 1.667 2.298 1.9.632.192-1.36.339-3.007-.728-4.076-.829-.817-2.129-.834-3.082-.216-1.642 1.063-1.889 3.544-.789 5.063 1.477 2.05 4.492 2.18 6.679 1.279 1.272-.516 2.405-1.727 3.114-2.88.828-1.347 1.283-2.894 1.57-4.438.308-1.697.388-3.419.48-5.128l.209-4.825a13.675 13.675 0 0 0 2.044-1.146c1.244-.85 2.301-1.781 3.158-3.02a11.096 11.096 0 0 0 1.78-4.307c.479-2.739-.463-5.669-2.539-7.577zm-8.124-23.114c1.078-.682 2.291-.433 3.101.502.879.997 1.12 2.395.826 3.667-.358 1.517-1.28 2.823-2.21 4.057l-2.59 3.373a59.105 59.105 0 0 1-.559-2.883c-.429-2.651-1.325-6.95 1.432-8.716zm-2.594 39.351c-2.646-.25-5.138-1.662-6.455-3.974-2.907-5.079-.122-10.877 2.956-15.155 1.237-1.725 2.531-3.411 3.825-5.086l.692 2.702 1.094 4.192c-1.876 1.132-3.189 3.124-3.143 5.351.021 1.231.478 2.44 1.187 3.452.1.147.314-.017.251-.163-1.167-2.398-.6-5.594 1.55-7.277.139-.11.277-.209.415-.295l.785 3.535c.596 3.086.853 6.188.879 9.324l-.024 2.79c-1.271.493-2.622.733-4.012.604zm11.121-9.389c-.158 1.221-.642 2.435-1.26 3.498-.66 1.144-1.526 2.312-2.519 3.2-.331.299-.686.586-1.051.849.034-3.144-.1-6.287-.574-9.401-.301-1.97-.738-3.899-1.223-5.832 1.545-.252 3.171.139 4.405 1.228 1.888 1.637 2.537 4.052 2.222 6.458zM1124.2 583.641c-1.78-1.63-4.16-2.408-6.5-1.907l-2.19-8.253c.07-.079.12-.159.19-.226l2.95-3.801c.85-1.109 1.65-2.268 2.19-3.561.88-2.125.63-4.742-1.23-6.305-1.95-1.664-4.8-.85-6.16 1.105-1.73 2.476-1.22 5.937-.85 8.738.22 1.645.53 3.271.9 4.878l-5.26 6.929c-1.7 2.515-3.12 5.282-3.5 8.298-.33 2.63.12 5.46 1.71 7.659 2.56 3.52 7 4.302 11 3.295-.05 1.865-.14 3.729-.24 5.592-.15 2.794-.46 5.744-2.07 8.133-.67.979-1.77 2.038-2.96 2.322-1.2.285-2.54.182-3.53-.585-.91-.693-1.25-1.836-1.08-2.938.19-1.112 1.07-2.338 2.36-2.274.77.045 1.2.792 1.23 1.48.04.759-.39 1.432-.76 2.06-.86 1.429 1.67 2.298 1.9.632.19-1.361.34-3.008-.73-4.076-.83-.817-2.13-.834-3.08-.216-1.64 1.063-1.89 3.544-.79 5.063 1.48 2.05 4.49 2.18 6.68 1.279 1.27-.516 2.4-1.727 3.11-2.88.83-1.347 1.29-2.894 1.57-4.438.31-1.697.39-3.419.48-5.128l.21-4.825a13.64 13.64 0 0 0 2.05-1.146c1.24-.85 2.3-1.781 3.15-3.02a10.96 10.96 0 0 0 1.78-4.307c.48-2.739-.46-5.669-2.53-7.577zm-8.13-23.114c1.08-.682 2.29-.433 3.1.502.88.997 1.12 2.395.83 3.667-.36 1.517-1.28 2.823-2.21 4.057l-2.59 3.373a56.82 56.82 0 0 1-.56-2.883c-.43-2.651-1.33-6.95 1.43-8.716zm-2.59 39.351c-2.65-.25-5.14-1.662-6.46-3.974-2.9-5.079-.12-10.877 2.96-15.155 1.24-1.725 2.53-3.411 3.82-5.086l.69 2.702 1.1 4.192c-1.88 1.132-3.19 3.124-3.14 5.351.02 1.231.47 2.44 1.18 3.452.1.147.32-.017.25-.163-1.16-2.398-.6-5.594 1.55-7.277.14-.111.28-.209.42-.295.28 1.175.54 2.35.78 3.535.6 3.086.86 6.188.88 9.324.01.935 0 1.868-.02 2.79-1.27.493-2.62.733-4.01.604zm11.12-9.389c-.16 1.221-.64 2.435-1.26 3.498-.66 1.144-1.53 2.312-2.52 3.2-.33.299-.69.586-1.05.848.03-3.143-.1-6.286-.58-9.4-.3-1.97-.73-3.899-1.22-5.832 1.55-.252 3.17.139 4.41 1.228 1.88 1.637 2.53 4.052 2.22 6.458zM656.521 777.452a2.696 2.696 0 0 1-.269-.029l-.264-.054-.257-.08-.249-.104-.236-.128a2.79 2.79 0 0 1-.223-.149l-.207-.171-.189-.19a2.584 2.584 0 0 1-.169-.207 2.76 2.76 0 0 1-.148-.222l-.124-.235-.101-.247-.076-.254-.049-.261a2.61 2.61 0 0 1-.024-.265l.003-.265 2.213-36.449a2.63 2.63 0 0 1 .029-.264 2.54 2.54 0 0 1 .056-.259l.081-.253c.031-.083.066-.165.106-.244a2.51 2.51 0 0 1 .129-.233l.153-.219a2.59 2.59 0 0 1 .173-.204l.193-.186.21-.166.226-.145.24-.122.25-.099.26-.075.265-.049.269-.023a2.68 2.68 0 0 1 .269.003l.269.028.264.055.257.08.249.104.236.127.223.15.207.171.189.189.169.207a3.113 3.113 0 0 1 .272.458c.038.08.071.162.101.246l.075.255c.021.086.038.173.05.261a2.94 2.94 0 0 1 .024.264l-.003.266-2.213 36.448a2.567 2.567 0 0 1-.029.264 2.56 2.56 0 0 1-.056.26l-.081.253a2.397 2.397 0 0 1-.106.244 2.51 2.51 0 0 1-.129.233l-.153.219c-.054.071-.112.139-.173.203s-.126.127-.193.186a2.61 2.61 0 0 1-.211.166 2.643 2.643 0 0 1-.226.146l-.239.122-.25.099-.26.075-.265.048a2.42 2.42 0 0 1-.269.024c-.09.003-.18.002-.269-.003z"/><path d="M668.781 755.223c-7.495-.44-13.283-8.123-12.744-17.006a2.633 2.633 0 0 1 .085-.523 2.88 2.88 0 0 1 .081-.254c.031-.083.067-.164.106-.244a2.64 2.64 0 0 1 .13-.232c.047-.076.098-.149.152-.22a3.04 3.04 0 0 1 .173-.203c.062-.065.126-.127.193-.186a3.08 3.08 0 0 1 .211-.166 2.8 2.8 0 0 1 .226-.145 2.694 2.694 0 0 1 .49-.222 2.84 2.84 0 0 1 .259-.074 2.63 2.63 0 0 1 .265-.049c.089-.012.179-.02.269-.023a2.7 2.7 0 0 1 .27.002c.09.006.179.015.268.029a2.63 2.63 0 0 1 .264.055 2.65 2.65 0 0 1 .258.08 2.55 2.55 0 0 1 .248.104c.081.038.16.081.237.127a3.08 3.08 0 0 1 .222.15 2.61 2.61 0 0 1 .207.171 2.81 2.81 0 0 1 .189.189c.06.067.116.136.169.207a2.95 2.95 0 0 1 .148.222 2.65 2.65 0 0 1 .124.236 2.866 2.866 0 0 1 .177.501 2.553 2.553 0 0 1 .073.525 2.36 2.36 0 0 1-.003.266c-.364 5.993 2.996 11.013 7.581 11.283a2.73 2.73 0 0 1 .269.029c.088.013.177.031.264.054a2.55 2.55 0 0 1 .257.08 2.45 2.45 0 0 1 .248.104c.081.038.16.081.237.127a3.1 3.1 0 0 1 .223.15c.072.054.141.111.207.171a2.58 2.58 0 0 1 .188.189 2.79 2.79 0 0 1 .17.207 2.94 2.94 0 0 1 .147.222 2.66 2.66 0 0 1 .125.236 2.76 2.76 0 0 1 .101.246 2.86 2.86 0 0 1 .075.255c.021.086.038.173.05.261a2.94 2.94 0 0 1 .024.264 2.95 2.95 0 0 1-.003.266 2.633 2.633 0 0 1-.085.523 2.88 2.88 0 0 1-.081.254 2.9 2.9 0 0 1-.106.244 2.64 2.64 0 0 1-.13.232 2.584 2.584 0 0 1-.152.219 2.82 2.82 0 0 1-.173.204 3.076 3.076 0 0 1-.193.186 3.08 3.08 0 0 1-.211.166 2.8 2.8 0 0 1-.226.145 2.694 2.694 0 0 1-.489.222 2.86 2.86 0 0 1-.26.074 2.63 2.63 0 0 1-.265.049c-.089.012-.179.02-.269.023a2.7 2.7 0 0 1-.27-.002zm-25.195 30.14c-8.456-.496-14.797-5.881-14.412-12.225s7.379-10.812 15.781-10.319 14.799 5.855 14.413 12.199-7.271 10.845-15.782 10.345zm1.041-17.144c-5.217-.306-9.773 2.136-9.968 5.349s4.032 6.198 9.248 6.504 9.774-2.136 9.97-5.376-3.979-6.167-9.25-6.477zm4.385-26.838-16.473-.967-.269-.028a2.943 2.943 0 0 1-.264-.055 2.55 2.55 0 0 1-.257-.08 2.567 2.567 0 0 1-.249-.104l-.236-.127-.223-.15-.207-.171-.189-.189-.169-.207a2.523 2.523 0 0 1-.147-.223 2.51 2.51 0 0 1-.125-.235 2.76 2.76 0 0 1-.101-.246l-.075-.255a2.556 2.556 0 0 1-.05-.261 2.94 2.94 0 0 1-.024-.264l.003-.266a2.58 2.58 0 0 1 .029-.263 2.5 2.5 0 0 1 .056-.26l.081-.253c.031-.084.066-.165.106-.245l.129-.232.153-.219a2.59 2.59 0 0 1 .173-.204l.193-.186.211-.166a2.78 2.78 0 0 1 .225-.145l.24-.123.25-.099.26-.074.265-.049.269-.023a2.43 2.43 0 0 1 .27.003l16.473.967.268.028.264.055a2.65 2.65 0 0 1 .258.08 2.55 2.55 0 0 1 .248.104c.081.038.16.081.237.127l.223.15.206.171.189.189c.06.066.116.135.169.207l.148.222.124.236c.038.08.072.162.101.246a2.57 2.57 0 0 1 .076.255 2.86 2.86 0 0 1 .05.261c.012.087.02.176.023.264a2.34 2.34 0 0 1-.003.265 2.567 2.567 0 0 1-.029.264l-.055.26-.081.253-.106.245-.13.232a2.584 2.584 0 0 1-.152.219l-.174.204a2.41 2.41 0 0 1-.193.185 2.606 2.606 0 0 1-.21.167l-.226.145a2.46 2.46 0 0 1-.24.122c-.081.037-.165.07-.25.099l-.259.075-.265.049-.269.023a2.7 2.7 0 0 1-.27-.003zm-.444 7.317-16.474-.967-.268-.029a2.63 2.63 0 0 1-.264-.055 2.827 2.827 0 0 1-.257-.079l-.249-.104-.236-.128a3.064 3.064 0 0 1-.43-.32l-.189-.19a2.584 2.584 0 0 1-.169-.207l-.147-.222a2.42 2.42 0 0 1-.125-.236 2.644 2.644 0 0 1-.101-.246l-.076-.255a2.553 2.553 0 0 1-.073-.525l.003-.265c.005-.089.015-.177.029-.264a2.56 2.56 0 0 1 .056-.26 2.643 2.643 0 0 1 .187-.497 2.51 2.51 0 0 1 .129-.233l.153-.219a2.59 2.59 0 0 1 .173-.204l.193-.185.21-.167.226-.145.24-.122.25-.099.259-.075.266-.049.268-.023.27.003 16.473.967c.09.005.18.015.269.029a2.94 2.94 0 0 1 .264.054l.257.08.249.104.236.128.223.149.207.171c.066.06.129.123.189.19a2.76 2.76 0 0 1 .169.206l.148.223.124.235a2.78 2.78 0 0 1 .101.247l.076.254.049.261c.013.088.02.176.024.264l-.003.266a2.63 2.63 0 0 1-.029.264 2.54 2.54 0 0 1-.056.259 2.34 2.34 0 0 1-.081.254 2.5 2.5 0 0 1-.106.244l-.129.232a2.54 2.54 0 0 1-.153.22l-.173.203a2.61 2.61 0 0 1-.193.186 2.78 2.78 0 0 1-.21.166l-.226.145a2.71 2.71 0 0 1-.24.123l-.25.099-.259.074a2.65 2.65 0 0 1-.266.049l-.268.023a2.7 2.7 0 0 1-.27-.002zM648.063 757.014l-16.474-.967-.268-.029a2.63 2.63 0 0 1-.264-.055 2.827 2.827 0 0 1-.257-.079l-.249-.105a2.545 2.545 0 0 1-.236-.127l-.223-.15-.207-.17-.189-.19a2.584 2.584 0 0 1-.169-.207l-.147-.222a2.42 2.42 0 0 1-.125-.236 2.644 2.644 0 0 1-.101-.246l-.076-.255a2.586 2.586 0 0 1-.049-.26 2.35 2.35 0 0 1-.024-.265l.003-.265c.005-.089.015-.177.029-.264a2.56 2.56 0 0 1 .056-.26c.022-.086.049-.17.081-.253l.106-.244a2.51 2.51 0 0 1 .129-.233 2.38 2.38 0 0 1 .153-.219c.054-.071.112-.138.173-.204a2.59 2.59 0 0 1 .193-.185c.067-.059.137-.114.21-.166l.226-.146.24-.122.25-.099.259-.075.266-.049.268-.023.27.003 16.473.967c.09.005.18.015.269.029l.264.054.257.08.249.104.236.128.223.149.207.171.189.189.169.208c.053.071.102.145.148.222l.124.235a2.76 2.76 0 0 1 .101.246l.076.255.049.261a2.61 2.61 0 0 1 .024.265l-.003.265a2.63 2.63 0 0 1-.029.264 2.62 2.62 0 0 1-.056.26c-.022.085-.049.17-.081.253a2.5 2.5 0 0 1-.106.244l-.129.233a2.69 2.69 0 0 1-.153.219l-.173.203a2.61 2.61 0 0 1-.193.186 2.78 2.78 0 0 1-.21.166l-.226.145a2.71 2.71 0 0 1-.24.123l-.25.099-.259.074a2.65 2.65 0 0 1-.266.049l-.268.023a2.7 2.7 0 0 1-.27-.002zm674.057-173.145-.27-.029-.27-.055-.25-.079a2.18 2.18 0 0 1-.25-.105l-.24-.127a2.233 2.233 0 0 1-.22-.15l-.21-.171a2.12 2.12 0 0 1-.19-.189c-.06-.066-.11-.135-.17-.207l-.14-.222a2.266 2.266 0 0 1-.23-.482l-.08-.255-.05-.261-.02-.264v-.265l2.22-36.449a1.18 1.18 0 0 1 .03-.264c.01-.087.03-.174.05-.26a2.25 2.25 0 0 1 .08-.253 2.31 2.31 0 0 1 .11-.244l.13-.233.15-.219a2.15 2.15 0 0 1 .17-.203l.2-.186c.06-.059.13-.114.21-.166.07-.052.15-.101.22-.145l.24-.123a3.24 3.24 0 0 1 .25-.099l.26-.074.27-.049.27-.024.27.003.26.029.27.055c.09.022.17.049.26.079l.24.104c.09.039.16.082.24.128s.15.096.22.15c.08.053.14.11.21.17a2.13 2.13 0 0 1 .19.19c.06.066.12.135.17.207l.15.222.12.235a2.28 2.28 0 0 1 .1.247l.08.254.05.261.02.265v.265l-2.22 36.449c0 .088-.01.176-.02.264l-.06.259c-.02.086-.05.17-.08.254a2.31 2.31 0 0 1-.11.244l-.13.233c-.04.075-.09.148-.15.219a2.15 2.15 0 0 1-.17.203 2.22 2.22 0 0 1-.2.186 1.4 1.4 0 0 1-.21.166 2.04 2.04 0 0 1-.22.145l-.24.123a3.24 3.24 0 0 1-.25.099l-.26.074c-.09.021-.18.037-.27.049l-.26.023a2.7 2.7 0 0 1-.27-.002z"/><path d="M1334.38 561.639c-7.5-.44-13.29-8.123-12.75-17.005l.03-.264c.02-.087.03-.174.06-.26.02-.085.05-.17.08-.253s.06-.164.1-.244.09-.157.13-.233c.05-.075.1-.149.16-.219a2.16 2.16 0 0 1 .17-.204 2.22 2.22 0 0 1 .19-.185 4.35 4.35 0 0 1 .21-.166c.08-.052.15-.101.23-.145s.16-.086.24-.123a2.17 2.17 0 0 1 .25-.099 2.14 2.14 0 0 1 .26-.074c.09-.021.17-.037.26-.05a3.07 3.07 0 0 1 .27-.023 3.04 3.04 0 0 1 .27.003 2.75 2.75 0 0 1 .27.029c.09.014.18.032.26.054a2.33 2.33 0 0 1 .26.08 2.18 2.18 0 0 1 .25.104c.08.039.16.081.24.128.07.046.15.096.22.15a5.22 5.22 0 0 1 .21.17c.06.06.13.123.18.19.06.066.12.135.17.207.06.071.11.145.15.222a2.25 2.25 0 0 1 .13.235c.03.081.07.163.1.247a2.22 2.22 0 0 1 .07.254 2.4 2.4 0 0 1 .05.261l.03.265c0 .088 0 .177-.01.265-.36 5.994 3 11.014 7.58 11.283a2.75 2.75 0 0 1 .27.029c.09.014.18.032.27.054a3.016 3.016 0 0 1 .74.312 2.07 2.07 0 0 1 .22.15 5.22 5.22 0 0 1 .21.17c.06.061.13.124.19.19s.11.135.17.207a2.17 2.17 0 0 1 .27.458c.04.08.07.162.1.246a2.18 2.18 0 0 1 .07.255c.03.086.04.173.05.26.02.088.02.176.03.265v.265l-.03.264-.06.26c-.02.085-.05.17-.08.253a2.31 2.31 0 0 1-.11.244c-.04.08-.08.157-.13.233a1.22 1.22 0 0 1-.15.219c-.05.07-.11.138-.17.204s-.13.126-.19.185c-.07.059-.14.114-.22.166a1.9 1.9 0 0 1-.22.145c-.08.045-.16.086-.24.123a3.24 3.24 0 0 1-.25.099 2.815 2.815 0 0 1-.53.124 2.89 2.89 0 0 1-.26.023 3.04 3.04 0 0 1-.27-.003zm-25.2 30.141c-8.46-.496-14.8-5.881-14.41-12.226.38-6.345 7.38-10.811 15.78-10.318s14.8 5.854 14.41 12.199c-.38 6.344-7.27 10.845-15.78 10.345zm1.04-17.144c-5.21-.307-9.77 2.136-9.97 5.348-.19 3.213 4.04 6.198 9.25 6.504 5.22.306 9.78-2.136 9.97-5.376.2-3.239-3.98-6.167-9.25-6.476zm4.39-26.838-16.48-.967a2.27 2.27 0 0 1-.26-.029l-.27-.054-.26-.08-.24-.104c-.09-.039-.16-.082-.24-.128s-.15-.096-.22-.15c-.08-.053-.14-.11-.21-.17a2.13 2.13 0 0 1-.19-.19 2.075 2.075 0 0 1-.17-.207l-.15-.222-.12-.235a2.28 2.28 0 0 1-.1-.247l-.08-.255-.05-.26-.02-.265v-.265l.03-.264c.02-.088.03-.174.06-.26.02-.085.05-.17.08-.253l.1-.244.13-.233.16-.219a2.03 2.03 0 0 1 .17-.203l.19-.186.21-.166.23-.146.24-.122a2.17 2.17 0 0 1 .25-.099 2.14 2.14 0 0 1 .26-.074c.08-.021.17-.037.26-.049s.18-.02.27-.024l.27.003 16.47.967a2.75 2.75 0 0 1 .27.029l.27.054.25.08c.09.031.17.066.25.104l.24.128c.08.046.15.096.22.149l.21.171a2.13 2.13 0 0 1 .19.19c.06.066.11.135.17.207l.14.222a2.25 2.25 0 0 1 .13.235 2.28 2.28 0 0 1 .1.247l.08.255.05.26.02.265v.265l-.03.264-.06.26c-.02.085-.05.17-.08.253a2.31 2.31 0 0 1-.11.244c-.03.08-.08.157-.13.233-.04.075-.09.148-.15.219a2.15 2.15 0 0 1-.17.203c-.06.065-.13.127-.19.186l-.21.166-.23.145-.24.123a3.24 3.24 0 0 1-.25.099l-.26.074-.26.049-.27.024a3.04 3.04 0 0 1-.27-.003zm-.45 7.316-16.47-.967a2.75 2.75 0 0 1-.27-.029 2.17 2.17 0 0 1-.26-.054l-.26-.08a2.18 2.18 0 0 1-.25-.104l-.24-.128-.22-.149-.21-.171-.18-.19-.17-.206a1.245 1.245 0 0 1-.15-.223 2.25 2.25 0 0 1-.13-.235l-.1-.247a2.22 2.22 0 0 1-.07-.254l-.05-.261-.03-.264.01-.266a1.19 1.19 0 0 1 .03-.264c.01-.087.03-.174.05-.259l.08-.254a2.31 2.31 0 0 1 .11-.244l.13-.233.15-.219.17-.203.2-.186.21-.166c.07-.052.15-.1.22-.145l.24-.123.25-.099.26-.074.27-.049.27-.023a2.7 2.7 0 0 1 .27.002l16.47.967.27.029c.09.014.18.032.26.055a2.33 2.33 0 0 1 .26.079l.25.104.24.128.22.15c.07.053.14.11.2.17a2.27 2.27 0 0 1 .19.19c.06.066.12.135.17.207.06.072.1.146.15.222a2.17 2.17 0 0 1 .13.236l.1.246c.03.084.05.169.07.255l.05.261.02.264c.01.089.01.177 0 .265 0 .089-.01.177-.03.264-.01.088-.03.174-.05.26l-.08.253-.11.244-.13.233-.15.219c-.06.071-.11.139-.18.204l-.19.185-.21.167-.22.145-.24.122-.25.099-.26.075-.27.049-.27.023a3.04 3.04 0 0 1-.27-.003zM1313.66 563.43l-16.48-.967a2.55 2.55 0 0 1-.26-.029l-.27-.054-.26-.08-.24-.104-.24-.128a2.066 2.066 0 0 1-.22-.149c-.08-.054-.14-.111-.21-.171s-.13-.123-.19-.19l-.17-.206-.15-.223-.12-.235a2.35 2.35 0 0 1-.1-.246l-.08-.255-.05-.261-.02-.265v-.265l.03-.264c.02-.087.03-.174.06-.26.02-.085.05-.17.08-.253l.1-.244.13-.233.16-.219a2.15 2.15 0 0 1 .17-.203l.19-.186.21-.166.23-.145.24-.123a2.17 2.17 0 0 1 .25-.099c.08-.029.17-.053.26-.074l.26-.049.27-.023a2.7 2.7 0 0 1 .27.002l16.48.967.26.029.27.055.26.079.24.105.24.127c.08.046.15.096.22.15l.21.17a2.27 2.27 0 0 1 .19.19c.06.066.11.135.17.207l.15.222.12.236c.04.08.07.162.1.246l.08.255.05.261.02.264v.265l-.03.264c-.02.088-.03.174-.06.26a2.25 2.25 0 0 1-.08.253l-.1.244-.13.233-.16.219a2.04 2.04 0 0 1-.17.204c-.06.065-.13.127-.19.185l-.21.166-.23.146-.24.122a2.17 2.17 0 0 1-.25.099c-.08.029-.17.054-.26.075l-.26.049-.27.023a3.04 3.04 0 0 1-.27-.003zm-828.124 57.023-.317-.035a2.955 2.955 0 0 1-.311-.064l-.304-.094a3.13 3.13 0 0 1-.293-.123l-.279-.15-.263-.177-.245-.201-.222-.224a3.323 3.323 0 0 1-.2-.244l-.174-.263-.147-.277-.119-.291a3.216 3.216 0 0 1-.148-.608l-.028-.312a2.99 2.99 0 0 1 .004-.314l2.611-43.009a2.96 2.96 0 0 1 .035-.311 2.94 2.94 0 0 1 .065-.307c.027-.101.059-.2.096-.299l.125-.288a2.94 2.94 0 0 1 .153-.274c.055-.089.115-.175.179-.259l.205-.24c.072-.077.148-.15.228-.219l.248-.196c.086-.062.175-.119.267-.171a3.26 3.26 0 0 1 .282-.145l.296-.117.306-.088.313-.057a3.06 3.06 0 0 1 .317-.028c.106-.004.212-.003.318.004l.317.033.312.065c.102.026.204.058.303.094a3.02 3.02 0 0 1 .293.123 3.27 3.27 0 0 1 .28.15l.262.177.245.201c.078.071.152.146.222.224l.2.244.174.262.147.278a3.06 3.06 0 0 1 .119.291c.035.098.065.199.089.3l.059.308a2.99 2.99 0 0 1 .028.312l-.003.313-2.612 43.01a2.96 2.96 0 0 1-.035.311 2.94 2.94 0 0 1-.065.307l-.096.298a2.94 2.94 0 0 1-.124.288l-.153.275-.18.259-.205.24-.228.219-.248.196-.267.171a3.26 3.26 0 0 1-.282.145l-.295.117-.306.087a3.073 3.073 0 0 1-.313.058l-.317.028a3.39 3.39 0 0 1-.319-.003z"/><path d="M500.004 594.221c-8.845-.519-15.674-9.585-15.038-20.066a3.25 3.25 0 0 1 .034-.311 3.16 3.16 0 0 1 .066-.307 3.15 3.15 0 0 1 .096-.299c.036-.098.078-.194.124-.288a3.2 3.2 0 0 1 .154-.274c.055-.089.115-.176.179-.259a3.33 3.33 0 0 1 .205-.24 3.334 3.334 0 0 1 .476-.415 3.11 3.11 0 0 1 .267-.172 3.393 3.393 0 0 1 .578-.261 3.22 3.22 0 0 1 .305-.088 3.74 3.74 0 0 1 .313-.058 3.38 3.38 0 0 1 .318-.027 3.373 3.373 0 0 1 .635.037 3.73 3.73 0 0 1 .311.064 3.24 3.24 0 0 1 .304.095 3.284 3.284 0 0 1 .572.273 3.18 3.18 0 0 1 .263.177c.085.063.166.13.244.201a3.14 3.14 0 0 1 .223.224 3.37 3.37 0 0 1 .2.244 3.5 3.5 0 0 1 .174.262 2.95 2.95 0 0 1 .147.278 3.35 3.35 0 0 1 .119.291 3.217 3.217 0 0 1 .148.608 3.65 3.65 0 0 1 .028.312 2.97 2.97 0 0 1-.004.313c-.429 7.073 3.535 12.997 8.946 13.314a3.35 3.35 0 0 1 .316.034 3.32 3.32 0 0 1 .312.065c.103.026.204.057.304.094a3.41 3.41 0 0 1 .293.122 3.26 3.26 0 0 1 .279.151 3.356 3.356 0 0 1 .507.378c.078.071.152.146.223.224a2.9 2.9 0 0 1 .199.244 3.215 3.215 0 0 1 .322.54 3.35 3.35 0 0 1 .119.291c.034.098.064.198.089.3a3.56 3.56 0 0 1 .059.308c.014.104.023.208.027.312a2.97 2.97 0 0 1-.003.313 2.977 2.977 0 0 1-.035.312 2.92 2.92 0 0 1-.065.306 3.15 3.15 0 0 1-.096.299 2.814 2.814 0 0 1-.125.288 2.96 2.96 0 0 1-.153.275 2.84 2.84 0 0 1-.18.258 3.113 3.113 0 0 1-.204.24 3.15 3.15 0 0 1-.476.416 3.36 3.36 0 0 1-.267.171 3.12 3.12 0 0 1-.282.144 3.137 3.137 0 0 1-.296.117 2.95 2.95 0 0 1-.305.088 3.375 3.375 0 0 1-.313.058 3.38 3.38 0 0 1-.318.027 3.373 3.373 0 0 1-.318-.003zm-29.731 35.567c-9.978-.586-17.46-6.94-17.005-14.427s8.707-12.758 18.621-12.176 17.462 6.908 17.008 14.395-8.58 12.797-18.624 12.208zm1.229-20.231c-6.156-.361-11.533 2.521-11.763 6.312s4.758 7.313 10.914 7.674 11.532-2.52 11.764-6.343-4.695-7.278-10.915-7.643zm5.174-31.668-19.438-1.141-.317-.034-.312-.065a3.215 3.215 0 0 1-.303-.094 3.02 3.02 0 0 1-.293-.123 3.27 3.27 0 0 1-.28-.15l-.263-.177-.244-.201-.223-.224-.199-.244-.174-.262-.147-.278a3.06 3.06 0 0 1-.119-.291 3.257 3.257 0 0 1-.148-.608 2.99 2.99 0 0 1-.028-.312l.003-.314.035-.311.065-.306a3.15 3.15 0 0 1 .096-.299l.125-.288a2.96 2.96 0 0 1 .153-.275l.18-.258a2.76 2.76 0 0 1 .205-.24l.227-.22.248-.196.267-.171c.092-.053.186-.101.283-.145l.295-.116c.101-.035.202-.064.306-.088l.313-.058.317-.027a3.09 3.09 0 0 1 .319.003l19.438 1.141.317.034c.104.016.208.038.311.064l.304.094.293.123.279.151c.091.054.179.113.263.176a3.15 3.15 0 0 1 .244.202l.223.223c.071.079.137.16.199.245a3.06 3.06 0 0 1 .175.262l.147.278.119.29.089.301a3.16 3.16 0 0 1 .059.308l.028.312c.004.104.003.208-.004.313a3.25 3.25 0 0 1-.034.311l-.066.307-.095.298a3.358 3.358 0 0 1-.125.289l-.154.274a3.226 3.226 0 0 1-.179.259l-.205.24c-.072.077-.148.15-.227.219l-.249.196a3 3 0 0 1-.266.171l-.283.145-.295.117-.306.088-.313.057a3.083 3.083 0 0 1-.317.028 3.39 3.39 0 0 1-.319-.003zm-.524 8.634-19.439-1.141-.316-.035a3.027 3.027 0 0 1-.616-.158l-.293-.123a3.127 3.127 0 0 1-.279-.15l-.263-.177-.244-.201-.223-.224-.199-.244a2.974 2.974 0 0 1-.174-.262l-.148-.278-.118-.291-.09-.3-.058-.308a2.99 2.99 0 0 1-.028-.312l.003-.313c.006-.105.018-.208.035-.312a2.92 2.92 0 0 1 .065-.306 3.15 3.15 0 0 1 .096-.299l.125-.288a2.96 2.96 0 0 1 .153-.275 3 3 0 0 1 .18-.259l.204-.24.228-.219.248-.196.267-.171a3.26 3.26 0 0 1 .282-.145l.296-.117a3.15 3.15 0 0 1 .306-.087c.103-.025.207-.044.313-.058l.317-.027c.106-.005.212-.003.318.003l19.439 1.141.316.034c.105.016.209.037.312.064l.304.094a3.13 3.13 0 0 1 .293.123l.279.151a3.09 3.09 0 0 1 .263.176l.244.202.223.223.199.244c.063.085.121.172.175.263l.147.278c.044.094.084.191.118.29l.09.301.059.308.027.312-.003.313a3.25 3.25 0 0 1-.034.311l-.066.307-.096.298-.125.288a2.834 2.834 0 0 1-.153.275 3.31 3.31 0 0 1-.179.259l-.205.24-.228.219-.248.196-.267.171a3.12 3.12 0 0 1-.282.145l-.296.117a3.15 3.15 0 0 1-.306.087 3.005 3.005 0 0 1-.312.058 3.1 3.1 0 0 1-.318.028 3.373 3.373 0 0 1-.318-.003zm-.596 9.812-19.438-1.141a3.34 3.34 0 0 1-.317-.034l-.312-.064-.303-.094-.294-.123-.279-.151-.263-.177-.244-.201-.223-.224-.199-.244a2.974 2.974 0 0 1-.174-.262 2.95 2.95 0 0 1-.147-.278 3.154 3.154 0 0 1-.119-.29 3.07 3.07 0 0 1-.09-.301l-.058-.308a2.94 2.94 0 0 1-.028-.312l.003-.313.035-.311c.016-.104.038-.206.065-.307a3.15 3.15 0 0 1 .096-.299l.125-.288a2.96 2.96 0 0 1 .153-.275c.055-.089.116-.175.18-.258l.204-.24.228-.219.248-.196a3.11 3.11 0 0 1 .267-.172l.282-.144.296-.117.306-.088.313-.058.317-.027.318.003 19.439 1.141.316.034.312.065.304.093.293.123.279.151.263.177a3.137 3.137 0 0 1 .467.425 2.9 2.9 0 0 1 .199.244l.175.262.147.278.118.291a3.05 3.05 0 0 1 .09.3l.059.308.028.312-.004.313a3.214 3.214 0 0 1-.034.311l-.066.307-.095.299a3.06 3.06 0 0 1-.126.288 3.09 3.09 0 0 1-.153.275 3.04 3.04 0 0 1-.179.258l-.205.24a3.334 3.334 0 0 1-.476.415 3 3 0 0 1-.266.171l-.283.145-.296.117-.305.088-.313.058-.318.027a3.373 3.373 0 0 1-.318-.003zm-78.779 210.348-.376-.04a3.57 3.57 0 0 1-.37-.077l-.36-.111a3.933 3.933 0 0 1-.348-.146l-.331-.178a3.697 3.697 0 0 1-.312-.21 4.13 4.13 0 0 1-.29-.239l-.264-.265-.237-.29a3.56 3.56 0 0 1-.206-.311 3.714 3.714 0 0 1-.316-.675l-.106-.356-.07-.365-.033-.37.004-.372 3.099-51.028c.007-.124.021-.247.041-.37l.077-.363c.032-.12.07-.238.114-.355l.148-.341a3.57 3.57 0 0 1 .182-.326 3.815 3.815 0 0 1 .456-.592l.27-.26.294-.232.317-.204.335-.171.351-.139.362-.104.372-.069a3.944 3.944 0 0 1 .754-.028 3.66 3.66 0 0 1 .376.04l.37.076.36.112.348.146.331.178.312.21.289.239c.093.084.181.173.265.265l.236.29a3.57 3.57 0 0 1 .207.311c.064.107.122.217.175.33l.141.344c.041.117.076.237.105.357a3.79 3.79 0 0 1 .07.365 3.82 3.82 0 0 1 .033.37 3.55 3.55 0 0 1-.004.372l-3.098 51.028-.041.37-.078.363-.113.355-.148.341-.182.326-.213.307a3.655 3.655 0 0 1-.243.285l-.27.26a3.67 3.67 0 0 1-.295.232l-.316.204-.335.171-.351.139-.363.104a3.847 3.847 0 0 1-.371.069l-.376.032a3.664 3.664 0 0 1-.378-.004z"/><path d="M413.942 775.561c-10.494-.616-18.597-11.371-17.842-23.807.008-.124.021-.247.041-.369a3.74 3.74 0 0 1 .078-.364 3.75 3.75 0 0 1 .113-.355 4.13 4.13 0 0 1 .148-.341 3.71 3.71 0 0 1 .182-.326c.066-.106.137-.208.213-.307a4.15 4.15 0 0 1 .243-.285 4.14 4.14 0 0 1 .27-.26 4.12 4.12 0 0 1 .295-.232 3.87 3.87 0 0 1 .316-.204 4.22 4.22 0 0 1 .335-.171 4.063 4.063 0 0 1 .714-.243 3.905 3.905 0 0 1 .748-.101 3.65 3.65 0 0 1 .377.004 3.96 3.96 0 0 1 .376.04c.124.02.248.045.37.076a3.75 3.75 0 0 1 .36.112c.118.043.234.092.348.146a3.4 3.4 0 0 1 .331.179 3.46 3.46 0 0 1 .312.209c.101.075.197.155.29.239a3.88 3.88 0 0 1 .264.265 3.89 3.89 0 0 1 .237.29 3.56 3.56 0 0 1 .206.311c.064.107.122.217.175.33a4.02 4.02 0 0 1 .141.345c.041.117.076.236.106.356a3.47 3.47 0 0 1 .069.366 3.51 3.51 0 0 1 .034.37 3.82 3.82 0 0 1-.005.371c-.509 8.392 4.195 15.42 10.614 15.796.126.008.251.021.376.041a4.16 4.16 0 0 1 .369.076 4.18 4.18 0 0 1 .361.112c.118.043.234.091.347.146a3.78 3.78 0 0 1 .332.178 3.85 3.85 0 0 1 .311.21c.101.075.198.154.29.239a3.88 3.88 0 0 1 .264.265 3.89 3.89 0 0 1 .237.29 3.705 3.705 0 0 1 .522.985 3.66 3.66 0 0 1 .106.357 3.79 3.79 0 0 1 .07.365 3.85 3.85 0 0 1 .033.37 3.55 3.55 0 0 1-.004.372 3.5 3.5 0 0 1-.041.369 3.74 3.74 0 0 1-.078.364 3.75 3.75 0 0 1-.113.355c-.044.116-.093.23-.148.341a3.57 3.57 0 0 1-.182.326 3.815 3.815 0 0 1-.213.307 4.15 4.15 0 0 1-.243.285 4.14 4.14 0 0 1-.27.26 4.194 4.194 0 0 1-.295.233 3.61 3.61 0 0 1-.316.203 4.22 4.22 0 0 1-.335.171 4.063 4.063 0 0 1-.714.243 3.905 3.905 0 0 1-.371.069 4.3 4.3 0 0 1-.376.032 3.667 3.667 0 0 1-.378-.004zm-35.274 42.198c-11.838-.695-20.715-8.234-20.176-17.116s10.331-15.136 22.093-14.446 20.718 8.196 20.179 17.079-10.18 15.183-22.096 14.483zm1.458-24.002c-7.303-.429-13.683 2.99-13.956 7.488s5.645 8.677 12.948 9.106 13.683-2.991 13.958-7.527-5.57-8.634-12.95-9.067zm6.139-37.573-23.063-1.354-.376-.04-.369-.077-.361-.111-.347-.146-.332-.178-.312-.21-.289-.239a3.695 3.695 0 0 1-.265-.266l-.236-.289-.207-.311-.174-.33-.141-.345a3.4 3.4 0 0 1-.106-.357 3.456 3.456 0 0 1-.07-.365l-.033-.37a3.53 3.53 0 0 1 .004-.371c.007-.124.021-.247.041-.37l.078-.363c.031-.12.069-.239.113-.355l.148-.342.182-.326.213-.306c.076-.099.157-.194.243-.285l.27-.26.295-.233c.102-.073.207-.14.316-.203l.335-.172.351-.138c.119-.041.24-.075.363-.104l.371-.069.376-.033.378.005 23.063 1.353.375.04.37.077.36.111.348.146.331.179.313.209.289.239.264.266a3.48 3.48 0 0 1 .237.29l.207.311.174.329a3.67 3.67 0 0 1 .141.345l.106.357.07.365.033.37c.005.124.003.248-.004.371l-.041.37a3.74 3.74 0 0 1-.078.364l-.113.354-.149.342-.181.326-.213.307-.243.284-.27.26-.295.233a3.61 3.61 0 0 1-.316.203l-.335.172-.351.138-.363.105-.371.068-.376.033a4.324 4.324 0 0 1-.378-.004zm-.622 10.243-23.063-1.353-.375-.041a3.57 3.57 0 0 1-.37-.076 3.486 3.486 0 0 1-.36-.112 3.54 3.54 0 0 1-.348-.145 3.77 3.77 0 0 1-.331-.179l-.313-.21-.289-.238-.265-.266-.236-.289-.207-.312-.174-.329-.141-.345-.106-.357-.07-.365-.033-.37a3.847 3.847 0 0 1 .004-.372l.041-.369.078-.364.113-.354.148-.342.182-.326.214-.307a3.61 3.61 0 0 1 .242-.285l.27-.259a3.68 3.68 0 0 1 .295-.233 3.61 3.61 0 0 1 .316-.203 3.92 3.92 0 0 1 .335-.172l.351-.139.363-.104a3.56 3.56 0 0 1 .371-.068l.376-.033c.127-.005.253-.003.378.004l23.063 1.354a3.96 3.96 0 0 1 .376.04c.124.019.247.045.369.076l.361.112.347.146a3.4 3.4 0 0 1 .331.179c.108.064.212.134.313.209l.289.239a3.68 3.68 0 0 1 .265.265l.236.29.207.311.174.33c.053.112.1.227.141.345a3.81 3.81 0 0 1 .106.356 3.75 3.75 0 0 1 .07.366 3.82 3.82 0 0 1 .033.37 3.53 3.53 0 0 1-.004.371 3.547 3.547 0 0 1-.041.37l-.078.363-.113.355-.148.341-.182.326-.213.307a3.655 3.655 0 0 1-.243.285l-.27.26-.295.233-.316.203-.335.171-.351.139a3.763 3.763 0 0 1-.734.173c-.125.017-.25.028-.376.032a3.97 3.97 0 0 1-.378-.004zm-.707 11.642-23.063-1.353-.375-.04-.37-.077-.36-.111a3.81 3.81 0 0 1-.348-.146 3.77 3.77 0 0 1-.331-.179l-.313-.21a3.84 3.84 0 0 1-.289-.238 3.68 3.68 0 0 1-.264-.266 3.64 3.64 0 0 1-.237-.289l-.206-.312-.175-.329-.141-.345-.106-.357-.07-.365-.033-.37a3.847 3.847 0 0 1 .004-.372l.041-.369.078-.364.113-.354.149-.342a3.7 3.7 0 0 1 .181-.326l.214-.306.242-.285.27-.26.295-.233c.102-.073.208-.141.316-.203a3.93 3.93 0 0 1 .336-.172 3.63 3.63 0 0 1 .35-.138 3.77 3.77 0 0 1 .363-.105l.371-.068.376-.033c.127-.005.253-.003.378.004l23.063 1.354a3.96 3.96 0 0 1 .376.04l.369.077.361.111.347.146c.114.054.224.114.332.179a3.77 3.77 0 0 1 .312.209l.289.239c.093.084.181.173.265.265a3.83 3.83 0 0 1 .236.29l.207.311.175.33.14.345a3.4 3.4 0 0 1 .106.357c.03.12.053.242.07.365a3.82 3.82 0 0 1 .033.37 3.53 3.53 0 0 1-.004.371 3.547 3.547 0 0 1-.041.37l-.077.363c-.032.12-.07.239-.114.355l-.148.342-.182.326-.213.306a3.655 3.655 0 0 1-.243.285l-.27.26-.294.233-.317.203-.335.172-.351.138a3.763 3.763 0 0 1-.734.173l-.376.033a3.97 3.97 0 0 1-.378-.005zM1568.72 641.52l-.48-.051a5.235 5.235 0 0 1-.47-.098l-.46-.141-.44-.186-.42-.227a4.704 4.704 0 0 1-.4-.266l-.36-.304c-.12-.107-.23-.22-.34-.337a3.46 3.46 0 0 1-.3-.369c-.1-.127-.18-.259-.26-.396l-.23-.418-.17-.439c-.06-.149-.1-.3-.14-.453a3.74 3.74 0 0 1-.09-.465l-.04-.47c-.01-.158 0-.315 0-.473l3.94-64.878a3.73 3.73 0 0 1 .06-.47c.02-.156.05-.31.09-.462l.15-.451c.05-.148.12-.293.19-.434l.23-.415c.08-.134.17-.264.27-.39l.31-.362.34-.331c.12-.104.25-.203.38-.295l.4-.259.43-.218a4.48 4.48 0 0 1 .44-.176c.15-.052.31-.096.46-.133l.47-.087.48-.041.48.005.48.051.47.097c.16.04.31.088.46.142l.44.186a3.35 3.35 0 0 1 .42.227 4.704 4.704 0 0 1 .77.57l.33.337a3.46 3.46 0 0 1 .3.369 3.54 3.54 0 0 1 .27.395l.22.419a3.55 3.55 0 0 1 .18.439l.13.453a3.69 3.69 0 0 1 .09.464l.04.471c.01.158.01.315 0 .472l-3.94 64.879-.05.47-.1.462c-.04.152-.09.303-.15.451a3.546 3.546 0 0 1-.42.849 3.47 3.47 0 0 1-.27.389c-.09.126-.2.247-.31.362-.1.116-.22.227-.34.331l-.37.296c-.13.093-.27.179-.41.258-.13.08-.28.153-.42.219l-.45.176-.46.132a4.34 4.34 0 0 1-.47.087l-.48.042c-.16.006-.32.005-.48-.005z"/><path d="M1590.54 601.951c-13.34-.783-23.64-14.459-22.68-30.27a7.38 7.38 0 0 1 .05-.469c.03-.156.06-.31.1-.463a3.71 3.71 0 0 1 .15-.45 3.56 3.56 0 0 1 .18-.435c.07-.142.15-.28.23-.414a5.75 5.75 0 0 1 .28-.39c.09-.126.2-.247.3-.362.11-.116.23-.226.35-.331s.24-.203.37-.296.27-.178.4-.258c.14-.08.29-.152.43-.218.15-.066.29-.125.45-.177a4.71 4.71 0 0 1 .46-.132 4.34 4.34 0 0 1 .47-.087 4.57 4.57 0 0 1 .48-.041c.16-.007.32-.005.48.004a4.89 4.89 0 0 1 .48.052c.15.024.31.057.47.097a5.19 5.19 0 0 1 .45.142c.16.054.3.116.45.185a6.17 6.17 0 0 1 .42.227c.13.083.27.171.39.267.13.095.26.196.37.303a5.42 5.42 0 0 1 .34.338 3.55 3.55 0 0 1 .3.368 5.87 5.87 0 0 1 .26.396c.08.136.16.276.22.419a3.6 3.6 0 0 1 .18.438c.06.149.1.301.14.454a3.69 3.69 0 0 1 .09.464 7.35 7.35 0 0 1 .04.471 3.72 3.72 0 0 1-.01.472c-.64 10.669 5.34 19.605 13.5 20.084.16.009.32.026.48.051a6.06 6.06 0 0 1 .47.097 5.19 5.19 0 0 1 .45.142c.15.055.3.116.45.185.14.069.28.145.42.227.13.083.27.172.39.267a5.15 5.15 0 0 1 .37.304c.12.107.23.219.34.337.1.118.21.241.3.369a5.85 5.85 0 0 1 .26.395c.08.136.16.276.22.419.07.144.13.29.18.438.06.15.1.301.14.454l.09.465c.02.156.03.313.04.47 0 .158 0 .315-.01.473s-.02.313-.05.469a3.71 3.71 0 0 1-.1.463c-.04.152-.09.302-.14.45-.06.148-.12.293-.19.435s-.15.28-.23.414l-.27.39c-.1.126-.2.247-.31.362a5.31 5.31 0 0 1-.34.331c-.12.105-.25.203-.38.296s-.26.178-.4.258a4.56 4.56 0 0 1-.43.218 4.487 4.487 0 0 1-.9.309 5.04 5.04 0 0 1-.48.087c-.16.021-.31.036-.47.041a4.98 4.98 0 0 1-.49-.004zm-44.84 53.651c-15.06-.883-26.34-10.468-25.66-21.762.69-11.294 13.14-19.244 28.09-18.367 14.96.878 26.35 10.421 25.66 21.714s-12.94 19.305-28.09 18.415zm1.85-30.517c-9.29-.545-17.4 3.802-17.74 9.521-.35 5.719 7.17 11.032 16.46 11.577 9.28.545 17.4-3.802 17.75-9.569s-7.09-10.978-16.47-11.529zm7.8-47.772-29.32-1.721-.48-.051-.47-.097-.45-.142-.45-.185-.42-.227-.39-.267a4.884 4.884 0 0 1-.37-.303 5.16 5.16 0 0 1-.34-.338l-.3-.368-.26-.396-.22-.419a3.6 3.6 0 0 1-.18-.438l-.14-.454-.09-.464-.04-.471.01-.472.05-.47c.02-.156.06-.31.1-.462l.14-.451.19-.434c.07-.143.15-.28.23-.415l.27-.39.31-.362.34-.331c.12-.104.25-.203.38-.295l.4-.259.43-.218a4.48 4.48 0 0 1 .44-.176l.47-.133a4.89 4.89 0 0 1 .47-.087l.48-.041.48.005 29.32 1.721.48.051.47.097.45.142a4.72 4.72 0 0 1 .45.186l.42.227.39.266a5.404 5.404 0 0 1 .71.641 3.46 3.46 0 0 1 .3.369l.26.395.22.419c.07.144.13.289.18.439.06.148.1.3.14.453s.06.308.09.464l.04.471-.01.472-.05.47a3.71 3.71 0 0 1-.1.463l-.14.45-.19.435-.23.414c-.08.135-.18.265-.27.39l-.31.362-.34.331a5.22 5.22 0 0 1-.38.296l-.4.258a4.33 4.33 0 0 1-.43.218c-.14.066-.29.125-.44.176s-.31.096-.46.133l-.48.087a4.69 4.69 0 0 1-.47.042c-.17.005-.33.004-.49-.006zm-.79 13.025-29.32-1.722-.48-.051-.47-.097-.45-.142-.45-.185-.42-.228-.39-.266a4.884 4.884 0 0 1-.37-.303l-.34-.338-.3-.368-.26-.396-.22-.419a3.55 3.55 0 0 1-.18-.439c-.06-.148-.1-.3-.14-.453l-.09-.464-.04-.471.01-.472.05-.47c.02-.156.06-.31.1-.462l.14-.451.19-.434.23-.415c.08-.134.18-.264.27-.39l.31-.362.34-.331c.12-.104.25-.203.38-.295l.4-.259.43-.218c.14-.066.29-.125.44-.176s.31-.096.46-.132l.48-.088a4.66 4.66 0 0 1 .47-.041l.49.005 29.32 1.721.48.051.47.097.45.142.45.185.42.228.39.266a4.897 4.897 0 0 1 .71.641l.3.368.26.396.22.419c.07.143.13.29.18.439.06.149.1.3.14.453l.09.465.04.47-.01.473-.05.469c-.02.156-.06.31-.1.462l-.14.451-.19.435-.23.414-.27.39-.31.362-.34.331a5.22 5.22 0 0 1-.38.296l-.4.258a4.56 4.56 0 0 1-.43.218c-.14.066-.29.125-.44.177l-.46.132-.48.087a5.123 5.123 0 0 1-.96.037zM1553.67 605.139l-29.33-1.721a4.39 4.39 0 0 1-.47-.051l-.47-.097c-.16-.04-.31-.087-.46-.142l-.44-.185a4.88 4.88 0 0 1-.43-.227l-.39-.267a4.666 4.666 0 0 1-.37-.304l-.34-.337-.3-.368-.26-.396-.22-.419a3.67 3.67 0 0 1-.18-.438l-.14-.454-.09-.464-.04-.471.01-.473.05-.469.1-.462.14-.451.19-.435.23-.414.27-.39.31-.362c.11-.116.23-.226.35-.331l.37-.295.4-.259.43-.218c.14-.066.29-.125.44-.176l.47-.133a4.89 4.89 0 0 1 .47-.087l.48-.041a4.52 4.52 0 0 1 .48.005l29.32 1.721.48.051.47.097.45.142a4.72 4.72 0 0 1 .45.186l.42.227c.14.082.27.171.4.266l.36.304c.12.107.23.219.34.337a3.46 3.46 0 0 1 .3.369l.26.395.22.419a3.55 3.55 0 0 1 .18.439c.06.148.1.3.14.453a3.69 3.69 0 0 1 .09.464l.04.471c.01.158 0 .315-.01.472l-.05.47a3.71 3.71 0 0 1-.1.463l-.14.45-.19.435-.23.414a3.48 3.48 0 0 1-.27.39l-.31.362-.34.331a5.22 5.22 0 0 1-.38.296l-.4.258-.43.218c-.14.066-.29.125-.44.176l-.46.133-.48.087a4.69 4.69 0 0 1-.47.042c-.16.005-.32.004-.48-.006zM472.578 456.345l-.344-.037a3.27 3.27 0 0 1-.338-.07 3.205 3.205 0 0 1-.329-.102l-.318-.133-.303-.163-.285-.192a3.446 3.446 0 0 1-.507-.461l-.216-.265-.189-.284-.16-.302a3.297 3.297 0 0 1-.128-.315l-.097-.326a3.45 3.45 0 0 1-.064-.334 3.19 3.19 0 0 1-.03-.338 3.21 3.21 0 0 1 .003-.34l2.833-46.654.037-.338.072-.333.103-.324a3.59 3.59 0 0 1 .136-.312c.05-.102.106-.201.166-.298a3.18 3.18 0 0 1 .195-.28l.222-.261.247-.238.269-.212a3.38 3.38 0 0 1 .289-.186l.307-.157.32-.127.332-.095.34-.063.344-.029a3.61 3.61 0 0 1 .345.003l.344.037.338.07.329.102c.109.039.214.084.318.133l.303.163.285.192.265.219c.085.076.165.158.242.242l.216.265a3.35 3.35 0 0 1 .189.285 3.6 3.6 0 0 1 .16.301l.129.315.096.326a3.45 3.45 0 0 1 .064.334 3.19 3.19 0 0 1 .03.338 3.21 3.21 0 0 1-.003.34l-2.833 46.655a3.187 3.187 0 0 1-.038.337l-.07.333-.104.324a3.31 3.31 0 0 1-.136.312 3.33 3.33 0 0 1-.166.298c-.06.097-.125.19-.195.281a3.21 3.21 0 0 1-.222.26l-.247.238a3.43 3.43 0 0 1-.269.212c-.093.067-.19.129-.29.186l-.306.157-.32.127-.332.095-.34.063-.344.03a3.61 3.61 0 0 1-.345-.004z"/><path d="M488.272 427.891c-9.594-.563-17.003-10.397-16.313-21.767a3.53 3.53 0 0 1 .038-.338c.018-.111.042-.222.071-.332a3.3 3.3 0 0 1 .104-.324 3.317 3.317 0 0 1 .301-.611 3.59 3.59 0 0 1 .195-.28c.07-.091.144-.177.222-.261a3.25 3.25 0 0 1 .247-.237 3.7 3.7 0 0 1 .269-.213 3.97 3.97 0 0 1 .29-.186 3.38 3.38 0 0 1 .306-.156c.105-.048.212-.09.321-.127a3.2 3.2 0 0 1 .331-.095 3.28 3.28 0 0 1 .34-.063c.114-.016.229-.026.344-.03a3.97 3.97 0 0 1 .345.003 3.58 3.58 0 0 1 .344.038c.114.017.226.04.338.069a3.92 3.92 0 0 1 .33.102 3.85 3.85 0 0 1 .317.133 3.4 3.4 0 0 1 .303.164c.099.059.194.123.286.192a3.43 3.43 0 0 1 .264.218 3.467 3.467 0 0 1 .458.507 3.35 3.35 0 0 1 .189.285 3.214 3.214 0 0 1 .289.617 3.95 3.95 0 0 1 .097.326 3.71 3.71 0 0 1 .063.334 3.48 3.48 0 0 1 .031.338c.004.113.003.227-.004.34-.466 7.672 3.835 14.097 9.703 14.442a3.58 3.58 0 0 1 .344.037 3.49 3.49 0 0 1 .338.07 3.13 3.13 0 0 1 .329.102 3.18 3.18 0 0 1 .318.133 3.39 3.39 0 0 1 .303.163 3.64 3.64 0 0 1 .285.192 3.49 3.49 0 0 1 .265.218c.085.077.165.158.242.243a3.42 3.42 0 0 1 .216.265 3.33 3.33 0 0 1 .189.284c.058.098.111.199.16.302a3.59 3.59 0 0 1 .129.315 3.38 3.38 0 0 1 .096.326 3.17 3.17 0 0 1 .064.334 3.19 3.19 0 0 1 .03.338 3.21 3.21 0 0 1-.003.34 3.206 3.206 0 0 1-.038.338 3.11 3.11 0 0 1-.071.332 3.297 3.297 0 0 1-.239.637 3.77 3.77 0 0 1-.166.298 3.34 3.34 0 0 1-.195.28 3.47 3.47 0 0 1-.222.261 3.455 3.455 0 0 1-.247.237 3.7 3.7 0 0 1-.269.213c-.093.067-.19.129-.29.186a3.67 3.67 0 0 1-.306.157 3.8 3.8 0 0 1-.32.127 3.81 3.81 0 0 1-.332.095 3.84 3.84 0 0 1-.34.063 3.6 3.6 0 0 1-.344.029 3.31 3.31 0 0 1-.345-.003zm-32.25 38.58c-10.824-.635-18.94-7.528-18.447-15.649s9.445-13.838 20.199-13.207 18.942 7.493 18.449 15.614-9.307 13.882-20.201 13.242zm1.332-21.944c-6.677-.392-12.51 2.734-12.759 6.846s5.161 7.933 11.838 8.325 12.51-2.734 12.762-6.881-5.093-7.894-11.841-8.29zm5.613-34.353-21.086-1.238a3.59 3.59 0 0 1-.343-.036l-.338-.07-.33-.102-.318-.134a3.26 3.26 0 0 1-.302-.163 3.243 3.243 0 0 1-.286-.192 3.25 3.25 0 0 1-.264-.218 3.263 3.263 0 0 1-.242-.243 3.19 3.19 0 0 1-.216-.264 3.35 3.35 0 0 1-.189-.285 3.214 3.214 0 0 1-.16-.301l-.129-.315a3.404 3.404 0 0 1-.097-.327 3.43 3.43 0 0 1-.064-.333l-.03-.339.004-.34.037-.337a3.46 3.46 0 0 1 .071-.333 3.3 3.3 0 0 1 .104-.324 3.2 3.2 0 0 1 .136-.312 2.98 2.98 0 0 1 .166-.298c.06-.097.125-.19.195-.281a3.21 3.21 0 0 1 .222-.26l.246-.238.27-.213.289-.186.307-.156c.104-.048.211-.09.32-.127l.332-.095c.112-.027.225-.047.339-.063l.344-.03.346.004 21.086 1.238c.115.006.229.018.343.036l.338.07.33.102.318.134a3.26 3.26 0 0 1 .302.163 3.47 3.47 0 0 1 .286.191l.265.219.241.242a3.38 3.38 0 0 1 .216.265l.19.285.159.301.129.315a3.32 3.32 0 0 1 .097.327 3.43 3.43 0 0 1 .064.333l.03.339-.004.339-.037.338-.071.333-.104.324a3.31 3.31 0 0 1-.136.312 3.1 3.1 0 0 1-.166.298c-.06.097-.125.19-.195.281a3.21 3.21 0 0 1-.222.26l-.247.238-.269.213-.289.185c-.1.058-.202.11-.307.157a3.67 3.67 0 0 1-.32.127l-.332.095a3.547 3.547 0 0 1-.339.063l-.345.03a3.61 3.61 0 0 1-.345-.004zm-.569 9.365-21.085-1.237-.344-.037-.338-.07-.329-.102a3.434 3.434 0 0 1-.318-.133l-.303-.164a3.47 3.47 0 0 1-.286-.191l-.264-.219a3.453 3.453 0 0 1-.242-.242l-.216-.265a3.35 3.35 0 0 1-.189-.285 3.33 3.33 0 0 1-.16-.301l-.129-.315-.097-.326-.063-.334-.031-.339.004-.339.037-.338.072-.333.103-.324a3.31 3.31 0 0 1 .136-.312 3.33 3.33 0 0 1 .166-.298c.06-.097.125-.19.195-.281a3.21 3.21 0 0 1 .222-.26l.247-.238.269-.213.289-.185c.1-.058.202-.11.307-.157a3.38 3.38 0 0 1 .32-.127l.332-.095a3.51 3.51 0 0 1 .34-.063l.344-.03.345.004 21.086 1.238a3.3 3.3 0 0 1 .343.037 3.21 3.21 0 0 1 .338.069l.33.102.318.134.303.163a3.38 3.38 0 0 1 .285.192c.092.068.18.141.265.218l.242.243.216.264a3.35 3.35 0 0 1 .189.285l.159.301.129.316a3.385 3.385 0 0 1 .161.66 3.19 3.19 0 0 1 .03.338l-.004.34-.037.338-.071.332a3.3 3.3 0 0 1-.104.324l-.135.312-.166.298-.195.281-.223.26-.246.238-.27.213-.289.186a3.52 3.52 0 0 1-.306.156c-.105.048-.212.09-.321.127l-.332.095a3.26 3.26 0 0 1-.339.063 3.303 3.303 0 0 1-.344.03 3.63 3.63 0 0 1-.346-.004zm-.646 10.644-21.086-1.237-.343-.037-.338-.07-.33-.102-.318-.133-.303-.163-.285-.192-.264-.219a3.25 3.25 0 0 1-.242-.242l-.217-.265-.188-.285a3.094 3.094 0 0 1-.16-.301l-.129-.315a3.385 3.385 0 0 1-.097-.326l-.064-.334-.03-.339.004-.339.037-.338a3.46 3.46 0 0 1 .071-.333c.029-.109.064-.217.104-.324a3.31 3.31 0 0 1 .136-.312 3.1 3.1 0 0 1 .166-.298c.06-.097.125-.19.195-.281a3.21 3.21 0 0 1 .222-.26l.246-.238.27-.212a3.38 3.38 0 0 1 .289-.186l.307-.157.32-.127.332-.095.339-.063.344-.03.346.004 21.086 1.238.343.037a3.49 3.49 0 0 1 .338.069l.33.102.317.134a3.39 3.39 0 0 1 .303.163c.099.059.194.123.286.192a3.25 3.25 0 0 1 .264.218c.085.077.166.158.242.243a3.42 3.42 0 0 1 .216.265l.189.284.16.301.129.316.097.326.063.334a3.48 3.48 0 0 1 .031.338l-.004.34-.037.337-.071.333-.104.324c-.04.107-.085.211-.136.313l-.166.298-.195.28a3.21 3.21 0 0 1-.222.26c-.078.084-.16.163-.247.238l-.269.213c-.093.067-.19.128-.289.186l-.307.157-.32.126-.332.096-.34.062a3.28 3.28 0 0 1-.344.03 3.61 3.61 0 0 1-.345-.004zm988.808-36.371-.35-.037-.34-.07-.33-.102-.31-.134a3.03 3.03 0 0 1-.31-.163l-.28-.191-.27-.219-.24-.242-.21-.265a3.36 3.36 0 0 1-.19-.285 3.468 3.468 0 0 1-.39-.942 1.92 1.92 0 0 1-.06-.334 1.94 1.94 0 0 1-.03-.339 1.92 1.92 0 0 1 0-.339l2.83-46.655.04-.338.07-.332a3.63 3.63 0 0 1 .11-.324l.13-.312a3.23 3.23 0 0 1 .17-.298l.19-.281c.07-.09.15-.177.23-.26.07-.083.16-.163.24-.238l.27-.213c.09-.066.19-.128.29-.186a2.99 2.99 0 0 1 .31-.156 2.84 2.84 0 0 1 .32-.127l.33-.095a2.93 2.93 0 0 1 .34-.063c.11-.016.23-.025.34-.03l.35.004.34.037c.12.018.23.041.34.069l.33.102.32.134.3.163c.1.059.19.123.29.192.09.068.18.141.26.218l.24.243a3.09 3.09 0 0 1 .22.265 3.19 3.19 0 0 1 .19.284c.06.098.11.198.16.301l.13.316.09.326c.03.11.05.221.07.334l.03.338-.01.34-2.83 46.654-.04.338-.07.332-.1.324a3.51 3.51 0 0 1-.14.313l-.16.298c-.06.096-.13.19-.2.28l-.22.26-.25.238c-.08.075-.17.146-.27.213-.09.067-.19.129-.29.186l-.3.157-.32.126-.34.096-.33.062-.35.03c-.11.005-.23.003-.34-.003z"/><path d="M1466.25 365.357c-9.59-.563-17-10.397-16.31-21.766 0-.113.02-.226.03-.338a3.73 3.73 0 0 1 .08-.332 1.93 1.93 0 0 1 .1-.325 3.54 3.54 0 0 1 .13-.312c.06-.102.11-.201.17-.298s.13-.19.2-.281.14-.177.22-.26a3.32 3.32 0 0 1 .25-.238c.08-.075.17-.146.26-.212.1-.067.19-.129.29-.186s.21-.11.31-.157a2.84 2.84 0 0 1 .32-.127 3.72 3.72 0 0 1 .33-.095c.11-.026.23-.047.34-.063a3.752 3.752 0 0 1 .69-.026c.12.007.23.019.34.037a3.14 3.14 0 0 1 .34.07 3.47 3.47 0 0 1 .33.102c.11.039.22.083.32.133s.21.104.3.164a3.09 3.09 0 0 1 .29.191 3.06 3.06 0 0 1 .26.218c.09.078.17.158.24.243.08.085.15.173.22.265a3.51 3.51 0 0 1 .19.284 3.485 3.485 0 0 1 .29.617c.04.107.07.216.1.326l.06.334.03.338v.34c-.47 7.672 3.83 14.098 9.7 14.443a3.27 3.27 0 0 1 .34.037 2.92 2.92 0 0 1 .34.069c.11.029.22.063.33.102a4.82 4.82 0 0 1 .32.133 4.44 4.44 0 0 1 .3.164c.1.059.19.123.29.192.09.068.18.141.26.218a1.96 1.96 0 0 1 .24.243 3.24 3.24 0 0 1 .22.264 3.36 3.36 0 0 1 .19.285 3.468 3.468 0 0 1 .29.616c.03.108.07.216.09.327.03.11.05.221.07.334l.03.338c0 .113 0 .227-.01.34 0 .113-.02.225-.03.337-.02.112-.05.223-.07.333-.03.109-.07.218-.11.324s-.08.211-.13.312a3.23 3.23 0 0 1-.17.298 3.25 3.25 0 0 1-.2.281c-.06.09-.14.177-.22.26s-.16.163-.24.238c-.09.075-.18.146-.27.213-.1.066-.19.128-.29.185a2.81 2.81 0 0 1-.31.157 2.84 2.84 0 0 1-.32.127 3.72 3.72 0 0 1-.33.095 3.38 3.38 0 0 1-.34.063 3.546 3.546 0 0 1-.69.026zM1434 403.938c-10.82-.636-18.94-7.528-18.45-15.649.5-8.122 9.45-13.839 20.2-13.208 10.76.631 18.94 7.494 18.45 15.615s-9.31 13.881-20.2 13.242zm1.33-21.945c-6.67-.392-12.51 2.734-12.76 6.846s5.16 7.933 11.84 8.325 12.51-2.734 12.76-6.881-5.09-7.894-11.84-8.29zm5.61-34.353-21.08-1.237a3.246 3.246 0 0 1-.34-.037 3.14 3.14 0 0 1-.34-.07l-.33-.102a3.064 3.064 0 0 1-.32-.133l-.3-.163-.29-.192-.26-.219a1.89 1.89 0 0 1-.24-.242 3.253 3.253 0 0 1-.22-.265 3.36 3.36 0 0 1-.19-.285 3.33 3.33 0 0 1-.16-.301c-.05-.103-.09-.208-.13-.315s-.07-.216-.09-.326c-.03-.11-.05-.222-.07-.334l-.03-.339v-.339l.04-.338.07-.333a3.72 3.72 0 0 1 .11-.323l.13-.313c.05-.102.11-.201.17-.298l.19-.28c.07-.091.15-.178.23-.261.07-.083.16-.162.24-.238l.27-.212.29-.186.31-.157c.1-.047.21-.09.32-.127l.33-.095.34-.063.34-.03.35.004 21.08 1.238.35.037.34.069.33.102.31.134a3.03 3.03 0 0 1 .31.163l.28.192.27.218.24.243.21.265c.07.092.14.186.19.284a3.468 3.468 0 0 1 .29.617 3.82 3.82 0 0 1 .1.326c.03.11.05.221.06.334a1.92 1.92 0 0 1 .03.338 1.93 1.93 0 0 1 0 .34l-.04.338-.07.332-.1.324a3.51 3.51 0 0 1-.14.313l-.16.298-.2.28-.22.26-.25.238c-.08.075-.17.146-.27.213-.09.067-.19.129-.29.186l-.3.157-.32.126-.34.096c-.11.026-.22.047-.34.062-.11.016-.22.026-.34.03a3.75 3.75 0 0 1-.35-.004zm-.56 9.366-21.09-1.238a3.27 3.27 0 0 1-.34-.037 3.144 3.144 0 0 1-.34-.069l-.33-.103a3.942 3.942 0 0 1-.32-.133l-.3-.163c-.1-.059-.19-.123-.29-.192a2.883 2.883 0 0 1-.26-.218 1.96 1.96 0 0 1-.24-.243 3.253 3.253 0 0 1-.22-.265 3.19 3.19 0 0 1-.19-.284 3.485 3.485 0 0 1-.29-.617l-.09-.326a3.81 3.81 0 0 1-.07-.334l-.03-.338.01-.34c0-.113.02-.226.03-.338l.07-.332a3.63 3.63 0 0 1 .11-.324l.13-.313a3.517 3.517 0 0 1 .37-.578c.06-.091.14-.177.22-.261l.24-.237.27-.213.29-.186.31-.157a3.04 3.04 0 0 1 .32-.126 3.41 3.41 0 0 1 .33-.095 3.38 3.38 0 0 1 .34-.063 3.25 3.25 0 0 1 .34-.03l.35.003 21.09 1.238.34.037.34.07a3.47 3.47 0 0 1 .33.102 2.7 2.7 0 0 1 .31.133c.11.05.21.104.31.164a2.93 2.93 0 0 1 .28.191c.1.069.18.141.27.218l.24.243c.08.085.15.173.22.265l.18.284a1.95 1.95 0 0 1 .16.302c.05.103.1.208.13.315.04.107.07.216.1.326a1.92 1.92 0 0 1 .06.334c.02.112.03.225.03.339a1.92 1.92 0 0 1 0 .339l-.04.338-.07.332-.1.325c-.04.106-.09.21-.14.312l-.16.298c-.06.097-.13.19-.2.281l-.22.26-.25.238c-.08.075-.17.146-.27.212-.09.067-.19.129-.29.186l-.3.157-.32.127-.33.095-.34.063-.35.029c-.11.005-.23.004-.34-.003zM1439.73 367.65l-21.09-1.238a3.564 3.564 0 0 1-.34-.036l-.34-.07-.33-.102c-.11-.04-.21-.084-.31-.134a3.03 3.03 0 0 1-.31-.163c-.1-.059-.19-.123-.28-.192l-.27-.218-.24-.243a3.09 3.09 0 0 1-.22-.265l-.18-.284a1.94 1.94 0 0 1-.16-.301c-.05-.103-.1-.209-.13-.316-.04-.107-.07-.215-.1-.326s-.05-.221-.06-.334a1.92 1.92 0 0 1-.03-.338 1.93 1.93 0 0 1 0-.34l.04-.337.07-.333.1-.324c.04-.106.09-.211.14-.313l.16-.298c.06-.096.13-.19.2-.28l.22-.26.25-.238c.08-.075.17-.146.27-.213.09-.066.19-.128.29-.186l.3-.157.32-.126.33-.096.34-.062.35-.03.34.004 21.09 1.237.34.037a3.14 3.14 0 0 1 .34.07l.33.102c.11.039.21.084.32.133l.3.164.29.191.26.219c.09.077.17.158.24.242.08.085.15.173.22.265a3.36 3.36 0 0 1 .19.285 3.468 3.468 0 0 1 .29.616l.09.326c.03.111.05.222.07.334l.03.339-.01.339c0 .114-.02.226-.03.338l-.07.333a3.86 3.86 0 0 1-.11.324l-.13.312c-.05.102-.11.201-.17.298l-.19.281c-.07.09-.15.177-.23.26l-.24.238-.27.212-.29.186-.31.157a2.84 2.84 0 0 1-.32.127l-.33.095-.34.063-.34.03c-.12.004-.24.003-.35-.004z"/></g></svg>