<svg width="291" height="323" fill="none" xmlns="http://www.w3.org/2000/svg"><g filter="url(#a)"><path d="M137.5 27.619a16 16 0 0 1 16 0l94.418 54.512c4.951 2.858 8 8.14 8 13.857v109.024a15.999 15.999 0 0 1-8 13.857L153.5 273.381a16 16 0 0 1-16 0l-94.418-54.512a16 16 0 0 1-8-13.857V95.988a16 16 0 0 1 8-13.857L137.5 27.62Z" fill="#fff"/></g><g filter="url(#b)"><path d="m153.378 15.858 104.786 60.498a15.758 15.758 0 0 1 7.879 13.646v120.996a15.759 15.759 0 0 1-7.879 13.646l-104.786 60.498a15.754 15.754 0 0 1-15.756 0L32.836 224.644a15.758 15.758 0 0 1-7.879-13.646V90.002c0-5.63 3.004-10.831 7.879-13.646l104.786-60.498a15.755 15.755 0 0 1 15.756 0Z" stroke="#65CB88" stroke-width="4"/></g><defs><filter id="a" x="15.082" y="15.475" width="260.836" height="290.05" filterUnits="userSpaceOnUse" color-interpolation-filters="sRGB"><feFlood flood-opacity="0" result="BackgroundImageFix"/><feColorMatrix in="SourceAlpha" values="0 0 0 0 0 0 0 0 0 0 0 0 0 0 0 0 0 0 127 0" result="hardAlpha"/><feOffset dy="10"/><feGaussianBlur stdDeviation="10"/><feColorMatrix values="0 0 0 0 0.160784 0 0 0 0 0.160784 0 0 0 0 0.164706 0 0 0 0.07 0"/><feBlend in2="BackgroundImageFix" result="effect1_dropShadow_1756_3924"/><feBlend in="SourceGraphic" in2="effect1_dropShadow_1756_3924" result="shape"/></filter><filter id="b" x=".761" y=".649" width="289.477" height="321.898" filterUnits="userSpaceOnUse" color-interpolation-filters="sRGB"><feFlood flood-opacity="0" result="BackgroundImageFix"/><feColorMatrix in="SourceAlpha" values="0 0 0 0 0 0 0 0 0 0 0 0 0 0 0 0 0 0 127 0" result="hardAlpha"/><feOffset dy="11.098"/><feGaussianBlur stdDeviation="11.098"/><feColorMatrix values="0 0 0 0 0.160784 0 0 0 0 0.160784 0 0 0 0 0.164706 0 0 0 0.07 0"/><feBlend in2="BackgroundImageFix" result="effect1_dropShadow_1756_3924"/><feBlend in="SourceGraphic" in2="effect1_dropShadow_1756_3924" result="shape"/></filter></defs></svg>