<?xml version="1.0" encoding="utf-8"?>
<!-- Generator: Adobe Illustrator 24.1.1, SVG Export Plug-In . SVG Version: 6.00 Build 0)  -->
<svg version="1.1" id="Layer_1" xmlns="http://www.w3.org/2000/svg" xmlns:xlink="http://www.w3.org/1999/xlink" x="0px" y="0px"
	 viewBox="0 0 291 323" style="enable-background:new 0 0 291 323;" xml:space="preserve">
<style type="text/css">
	.st0{fill:#3A3A3A;}
	.st1{fill:none;stroke:#1DEF49;stroke-width:6;}
</style>
<g>
	<path class="st0" d="M137.5,27.6c5-2.9,11-2.9,16,0l94.4,54.5c5,2.9,8,8.1,8,13.9v109c0,5.7-3,11-8,13.9l-94.4,54.5
		c-5,2.9-11,2.9-16,0l-94.4-54.5c-5-2.9-8-8.1-8-13.9V96c0-5.7,3-11,8-13.9L137.5,27.6L137.5,27.6z"/>
</g>
<g>
	<path class="st1" d="M153.4,15.9l104.8,60.5c4.9,2.8,7.9,8,7.9,13.6v121c0,5.6-3,10.8-7.9,13.6l-104.8,60.5
		c-4.9,2.8-10.9,2.8-15.8,0L32.8,224.6c-4.9-2.8-7.9-8-7.9-13.6V90c0-5.6,3-10.8,7.9-13.6l104.8-60.5C142.5,13,148.5,13,153.4,15.9z
		"/>
</g>
</svg>
