<svg width="7px" height="15px" viewBox="0 0 87 148" fill="none" xmlns="http://www.w3.org/2000/svg">
  <path d="M3.8627 3.88011C2.63824 5.10206 1.6668 6.55351 1.00399 8.15136C0.341174 9.74922 0 11.4621 0 13.192C0 14.9219 0.341174 16.6347 1.00399 18.2326C1.6668 19.8305 2.63824 21.2819 3.8627 22.5039L55.111 73.7522L3.8627 125.001C1.39304 127.47 0.00559282 130.82 0.00559282 134.312C0.00559282 137.805 1.39304 141.155 3.8627 143.624C6.33236 146.094 9.68194 147.481 13.1746 147.481C16.6672 147.481 20.0168 146.094 22.4864 143.624L83.1127 82.998C84.3372 81.7761 85.3086 80.3246 85.9714 78.7268C86.6342 77.1289 86.9754 75.416 86.9754 73.6861C86.9754 71.9563 86.6342 70.2434 85.9714 68.6455C85.3086 67.0477 84.3372 65.5962 83.1127 64.3743L22.4864 3.74802C17.4673 -1.27114 9.01395 -1.27114 3.8627 3.88011Z" fill="white" />
</svg>