<svg width="40" height="49" viewBox="0 0 40 49" fill="none" xmlns="http://www.w3.org/2000/svg">
<path d="M20.8296 0.841309C20.5199 0.841309 20.2027 0.857688 19.8752 0.881512C11.4846 1.5471 13.7107 10.4275 13.5856 13.3892C13.4307 15.5527 12.99 17.2666 11.501 19.3854C9.73948 21.4715 7.27368 24.8456 6.10332 28.3567C5.55387 30.008 5.28883 31.7084 5.53749 33.3062C5.44385 33.3755 5.367 33.4651 5.31265 33.5682C4.80044 34.1043 4.41925 34.7639 4.00084 35.2359C3.60625 35.6305 3.04043 35.7645 2.41802 36.0281C1.79859 36.2976 1.10769 36.5626 0.704173 37.3845C0.525492 37.7583 0.431685 38.1603 0.440619 38.5802C0.440619 38.9674 0.495712 39.3709 0.549317 39.6419C0.666948 40.4325 0.781602 41.0847 0.626745 41.5657C0.130905 42.9132 0.0773009 43.8364 0.418284 44.5124C0.765223 45.1795 1.47995 45.4431 2.27805 45.7081C3.89214 46.1027 6.07056 45.9776 7.79334 46.8934C9.62929 47.824 11.4995 48.2275 12.9885 47.8329C13.5021 47.7177 13.9836 47.4896 14.398 47.1651C14.8124 46.8406 15.1494 46.4278 15.3843 45.9568C16.5472 45.9493 17.8263 45.4207 19.8677 45.2897C21.2555 45.1721 22.9931 45.8242 24.9854 45.6843C25.039 45.9568 25.109 46.0789 25.2177 46.3514V46.3588C25.992 47.9014 27.4274 48.5998 28.9641 48.4836C30.4903 48.36 32.1193 47.422 33.437 45.8868C34.6938 44.374 36.7799 43.7367 38.1602 42.9088C38.8511 42.5112 39.4095 41.9781 39.4482 41.2098C39.4943 40.4191 39.0536 39.5972 38.0366 38.4805V38.2854L38.0291 38.278C37.6882 37.8834 37.5333 37.2163 37.3546 36.442C37.1834 35.6424 36.9973 34.883 36.3778 34.3633C36.2528 34.2547 36.1292 34.2308 35.9981 34.0998C35.8881 34.0223 35.7587 33.9769 35.6244 33.9688C36.4776 31.4315 36.1441 28.9121 35.2745 26.6384C34.2203 23.839 32.3664 21.3971 30.9623 19.7219C29.3795 17.7282 27.8294 15.8371 27.8607 13.0378C27.9143 8.76283 28.3327 0.862155 20.8266 0.845776L20.8296 0.841309ZM21.8764 7.60289H21.9077C22.3261 7.60289 22.6894 7.72797 23.0631 7.99153C23.4428 8.26104 23.7228 8.65116 23.9312 9.05319C24.1412 9.56541 24.2514 9.96 24.2648 10.4871C24.2648 10.4499 24.2722 10.4097 24.2722 10.3724V10.5809C24.2722 10.5645 24.2648 10.5511 24.2648 10.5348L24.2573 10.4871C24.2573 10.9695 24.1575 11.4505 23.964 11.8912C23.872 12.1422 23.7261 12.3699 23.5366 12.5583C23.483 12.5285 23.4279 12.4973 23.3654 12.4734C23.1569 12.3796 22.9708 12.3499 22.7996 12.2114C22.6587 12.1549 22.5132 12.1106 22.3648 12.0789C22.4586 11.9642 22.6522 11.8153 22.7296 11.6843C22.8308 11.4356 22.8844 11.1646 22.9008 10.8862V10.846C22.905 10.5772 22.8627 10.3097 22.7757 10.0553C22.6909 9.79174 22.5837 9.65773 22.4199 9.39566C22.2486 9.26314 22.0863 9.13211 21.8838 9.13211H21.854C21.6679 9.13211 21.5041 9.18571 21.3344 9.39566C21.1481 9.57933 21.0096 9.80579 20.9309 10.0553C20.8227 10.3055 20.7621 10.5736 20.7522 10.846V10.8862C20.7522 11.0633 20.7686 11.242 20.7894 11.4207C20.4023 11.2897 19.9213 11.1482 19.5803 11.0172C19.5618 10.8864 19.5513 10.7547 19.5491 10.6226V10.5824C19.534 10.058 19.6352 9.53681 19.8454 9.05617C20.0077 8.62138 20.3025 8.24764 20.6986 8.00046C21.0381 7.74584 21.449 7.60587 21.8764 7.60587V7.60289ZM15.9978 7.72053H16.0678C16.3477 7.72053 16.6038 7.81433 16.8599 7.98408C17.1532 8.24019 17.3885 8.55735 17.5434 8.90578C17.722 9.30334 17.8218 9.70537 17.8531 10.2325V10.2399C17.8605 10.5035 17.8605 10.6449 17.8456 10.7685V10.9308L17.6833 10.977C17.3811 11.0857 17.1413 11.2405 16.8986 11.3746C16.9225 11.1959 16.9225 11.0172 16.9061 10.846V10.8147C16.8837 10.5526 16.8286 10.4201 16.7438 10.1551C16.6802 9.95124 16.5654 9.76718 16.4102 9.6205C16.3127 9.53355 16.1848 9.4886 16.0544 9.49542H16.0067C15.8682 9.50287 15.7506 9.57285 15.6434 9.75898C15.5121 9.90996 15.4287 10.0965 15.4037 10.295C15.3486 10.5035 15.3322 10.7283 15.356 10.9547V10.977C15.3798 11.2495 15.426 11.382 15.5183 11.6441C15.5782 11.8461 15.6908 12.0285 15.8444 12.1727C15.8682 12.1965 15.8846 12.2129 15.9144 12.2188C15.7759 12.3365 15.6821 12.3603 15.5675 12.4913C15.4885 12.5464 15.4052 12.6164 15.3039 12.6328C15.0974 12.3844 14.9154 12.1166 14.7604 11.8332C14.5704 11.4158 14.4652 10.9648 14.4507 10.5065C14.4206 10.0585 14.4731 9.60878 14.6056 9.17975C14.7232 8.79261 14.9093 8.42781 15.1714 8.11809C15.4275 7.85454 15.6836 7.7235 16.0008 7.7235L15.9978 7.72053ZM18.7197 11.1095C19.3793 11.1095 20.1715 11.2331 21.1319 11.9002C21.7141 12.2977 22.1727 12.4362 23.2269 12.8234C23.7391 13.0958 24.0325 13.3594 24.1799 13.623V13.3594C24.2506 13.5032 24.2899 13.6604 24.2953 13.8206C24.3007 13.9808 24.272 14.1403 24.2111 14.2885C23.9625 14.9095 23.1867 15.5691 22.0953 15.9637V15.9711C21.5667 16.2347 21.1021 16.6308 20.5586 16.8943C20.0092 17.1579 19.3868 17.4765 18.5499 17.4229C18.2469 17.4362 17.9441 17.3912 17.658 17.2904C17.4375 17.1733 17.225 17.0415 17.0222 16.8958C16.6351 16.6322 16.3015 16.2362 15.8057 15.9726V15.9652H15.7983C14.9987 15.4768 14.5728 14.9482 14.4328 14.5536C14.3018 14.019 14.4254 13.6244 14.8215 13.3609C15.2622 13.0973 15.5719 12.8248 15.7744 12.6938C15.9829 12.5464 16.0618 12.4913 16.1243 12.4377H16.1318V12.4303C16.4653 12.0267 16.9909 11.4996 17.7995 11.2346C18.069 11.1646 18.3817 11.111 18.7212 11.111L18.7197 11.1095ZM24.2722 15.3576C24.9869 18.1734 26.6546 22.2607 27.7252 24.2381C28.291 25.2998 29.4227 27.5333 29.9111 30.2418C30.2208 30.2343 30.5618 30.279 30.9281 30.3728C32.2146 27.0538 29.85 23.4861 28.772 22.493C28.3297 22.0984 28.3074 21.8333 28.5233 21.8333C29.6952 22.8876 31.2288 24.9528 31.7872 27.301C32.0433 28.3626 32.1074 29.4973 31.8349 30.62C31.9659 30.6736 32.0984 30.7436 32.2384 30.751C34.2858 31.8157 35.0452 32.6138 34.6804 33.8065V33.7216C34.5657 33.7156 34.4406 33.7216 34.3245 33.7216H34.2932C34.597 32.7924 33.9299 32.0777 32.1773 31.2871C30.3622 30.4964 28.9119 30.62 28.6633 32.2102C28.6457 32.3001 28.6358 32.3912 28.6335 32.4827C28.492 32.5289 28.3536 32.5825 28.2151 32.6063C27.3619 33.1424 26.9033 33.9405 26.6412 34.9649C26.3851 36.0266 26.3077 37.2595 26.2377 38.68C26.19 39.3471 25.8967 40.3462 25.6004 41.3617C22.6224 43.4939 18.4889 44.4171 14.9853 42.0288C14.7589 41.6416 14.4954 41.2843 14.1857 40.9671C14.037 40.7207 13.8517 40.4983 13.6362 40.3075C13.9995 40.3075 14.3107 40.2464 14.5594 40.1749C14.8434 40.0381 15.0667 39.801 15.1863 39.5094C15.3962 38.9808 15.1863 38.1276 14.4954 37.1969C13.8149 36.2752 12.6505 35.227 10.9515 34.1817C9.69629 33.391 8.9905 32.453 8.66441 31.4121C8.33832 30.3505 8.38448 29.2561 8.63314 28.1482C9.12154 26.0234 10.3708 23.9537 11.1704 22.6568C11.3789 22.5332 11.2404 22.9293 10.3559 24.5969C9.57122 26.086 8.09114 29.5524 10.1132 32.243C10.1909 30.2779 10.6275 28.3436 11.4012 26.5356C12.5165 23.9999 14.8602 19.5805 15.0463 16.0754C15.1401 16.1528 15.4736 16.3478 15.6196 16.4789C16.0469 16.7424 16.3715 17.1385 16.7914 17.4021C17.2098 17.7966 17.7369 18.0691 18.5291 18.0691C18.6065 18.0766 18.6765 18.0766 18.745 18.0766C19.5595 18.0766 20.1968 17.813 20.7224 17.548C21.2957 17.2755 21.7632 16.8809 22.195 16.7499H22.2025C23.1257 16.4863 23.8627 15.9503 24.2737 15.3606L24.2722 15.3576ZM28.6156 33.1424C28.6931 34.3351 29.2991 35.6156 30.3682 35.8777C31.5311 36.1412 33.2137 35.218 33.9195 34.3589L34.3379 34.3425C34.9648 34.3261 35.4859 34.3589 36.019 34.8711L36.0264 34.8785C36.4374 35.2731 36.6325 35.9328 36.8022 36.6162C36.9734 37.4143 37.1045 38.1663 37.6167 38.7321C38.5771 39.7789 38.8957 40.5308 38.8809 40.9969C38.8496 41.5151 38.5071 41.7786 37.8877 42.1747C36.6384 42.9743 34.4213 43.5863 33.0097 45.2942C31.7828 46.7593 30.2878 47.5574 28.967 47.6587C27.6493 47.7674 26.5087 47.2641 25.8416 45.8764L25.8342 45.8689C25.4158 45.0768 25.5944 43.8364 25.9429 42.5172C26.2928 41.1905 26.7961 39.8429 26.866 38.7485C26.936 37.3295 27.0135 36.0966 27.2457 35.1406C27.4855 34.2174 27.8592 33.5578 28.5263 33.1945L28.6112 33.1468L28.6156 33.1424ZM7.14116 33.2421H7.16498C7.27368 33.2421 7.37493 33.2496 7.47469 33.2734C8.2192 33.3821 8.87883 33.933 9.50719 34.7624L11.3134 38.0665L11.3208 38.074C11.8018 39.1282 12.8173 40.1824 13.6779 41.3245C14.54 42.5097 15.2071 43.5714 15.1297 44.441V44.4573C15.0121 45.93 14.1752 46.7281 12.8962 47.0244C11.6156 47.2879 9.87795 47.0244 8.14177 46.1012C6.21946 45.0395 3.93085 45.1706 2.46567 44.9055C1.73755 44.7745 1.2566 44.502 1.03027 44.1074C0.81436 43.7128 0.805426 42.9117 1.27893 41.664V41.658C1.51122 40.9909 1.34296 40.1615 1.22533 39.4319C1.11663 38.6398 1.06302 38.0263 1.3102 37.5692C1.62736 36.9021 2.10086 36.7785 2.68158 36.5075C3.26378 36.244 3.95468 36.1129 4.49668 35.5769H4.50412V35.5694C5.0089 35.0438 5.39008 34.3842 5.83083 33.9092C6.20457 33.5057 6.58278 33.2421 7.14116 33.2421ZM21.3582 15.2266C20.4961 15.6212 19.4806 16.2883 18.4025 16.2883C17.3245 16.2883 16.4787 15.7627 15.8667 15.3651C15.557 15.0956 15.3084 14.8305 15.1222 14.698C14.7961 14.436 14.8349 14.0324 14.9748 14.0324C15.1907 14.0622 15.2309 14.3019 15.3694 14.436C15.5645 14.567 15.7968 14.8305 16.0827 15.0956C16.6649 15.4902 17.4406 16.0247 18.401 16.0247C19.3644 16.0247 20.4961 15.4902 21.178 15.0956C21.5652 14.832 22.061 14.436 22.4645 14.1724C22.7743 13.8999 22.7609 13.6364 23.014 13.6364C23.2701 13.6676 23.0855 13.8999 22.7281 14.296C22.3633 14.5685 21.8049 14.9631 21.3567 15.2266H21.3582ZM19.2096 12.0789V12.0416C19.2021 12.0014 19.2319 11.9568 19.2706 11.9404C19.4091 11.8555 19.6265 11.8853 19.7828 11.9478C19.9064 11.9478 20.1 12.0789 20.0851 12.2173C20.0687 12.3111 19.9139 12.3499 19.8126 12.3499C19.7054 12.3499 19.6265 12.265 19.5342 12.2114C19.4329 12.1801 19.2379 12.195 19.2081 12.0789H19.2096ZM18.1151 12.0789C18.0749 12.1965 17.8888 12.1801 17.7891 12.2114C17.6952 12.265 17.6178 12.3499 17.5091 12.3499C17.4079 12.3499 17.2456 12.3096 17.2366 12.2114C17.2232 12.0789 17.4079 11.9478 17.5329 11.9478C17.6952 11.8838 17.8963 11.854 18.0511 11.9404C18.0824 11.9568 18.1226 12.0014 18.1062 12.0416V12.0789H18.1151Z" fill="black"/>
</svg>
