<svg width="46" height="46" viewBox="0 0 46 46" fill="none" xmlns="http://www.w3.org/2000/svg">
<path d="M9.52112 13.615V40.7153C9.52112 43.2233 7.48804 45.2563 4.9801 45.2563C2.47217 45.2563 0.439087 43.2233 0.439087 40.7153V10.7446C0.439087 5.12686 4.99319 0.572754 10.611 0.572754H35.3141C40.9319 0.572754 45.486 5.12686 45.486 10.7446V40.8957C45.486 43.5047 43.371 45.6196 40.7621 45.6196C38.1541 45.6196 36.0395 43.5062 36.0382 40.8982L36.0239 13.6097C36.0226 11.2245 34.0886 9.2915 31.7034 9.2915C29.3173 9.2915 27.383 11.2258 27.383 13.612V23.008C27.383 25.5526 25.3201 27.6154 22.7755 27.6154C20.2309 27.6154 18.168 25.5526 18.168 23.008V13.615C18.168 11.2272 16.2323 9.2915 13.8446 9.2915C11.4568 9.2915 9.52112 11.2272 9.52112 13.615Z" fill="#65CB88"/>
</svg>
