<svg width="592" height="592" viewBox="0 0 592 592" fill="none" xmlns="http://www.w3.org/2000/svg">
<g filter="url(#filter0_d_2159_3425)">
<circle cx="299" cy="290" r="256" fill="#1D1D1D"/>
</g>
<path d="M222.041 235.58V384.777C222.041 398.584 210.848 409.777 197.041 409.777C183.234 409.777 172.041 398.584 172.041 384.777V219.777C172.041 188.849 197.113 163.777 228.041 163.777H364.041C394.969 163.777 420.041 188.849 420.041 219.777V385.771C420.041 400.134 408.397 411.777 394.034 411.777C379.676 411.777 368.035 400.142 368.027 385.784L367.949 235.551C367.942 222.419 357.294 211.777 344.163 211.777C331.026 211.777 320.377 222.427 320.377 235.563V287.292C320.377 301.301 309.021 312.658 295.011 312.658C281.002 312.658 269.645 301.301 269.645 287.292V235.58C269.645 222.434 258.989 211.777 245.843 211.777C232.698 211.777 222.041 222.434 222.041 235.58Z" fill="#5BB67A"/>
<defs>
<filter id="filter0_d_2159_3425" x="0" y="0" width="592" height="592" filterUnits="userSpaceOnUse" color-interpolation-filters="sRGB">
<feFlood flood-opacity="0" result="BackgroundImageFix"/>
<feColorMatrix in="SourceAlpha" type="matrix" values="0 0 0 0 0 0 0 0 0 0 0 0 0 0 0 0 0 0 127 0" result="hardAlpha"/>
<feMorphology radius="3" operator="erode" in="SourceAlpha" result="effect1_dropShadow_2159_3425"/>
<feOffset dx="-3" dy="6"/>
<feGaussianBlur stdDeviation="21.5"/>
<feComposite in2="hardAlpha" operator="out"/>
<feColorMatrix type="matrix" values="0 0 0 0 0 0 0 0 0 0 0 0 0 0 0 0 0 0 0.25 0"/>
<feBlend mode="normal" in2="BackgroundImageFix" result="effect1_dropShadow_2159_3425"/>
<feBlend mode="normal" in="SourceGraphic" in2="effect1_dropShadow_2159_3425" result="shape"/>
</filter>
</defs>
</svg>
