<svg width="93" height="93" fill="none" xmlns="http://www.w3.org/2000/svg"><mask id="a" style="mask-type:alpha" maskUnits="userSpaceOnUse" x="0" y="0" width="93" height="93"><circle cx="46.5" cy="46.5" r="46.5" fill="#C4C4C4"/></mask><g mask="url(#a)"><rect width="93" height="93" rx="8.719" fill="#1D1D1D"/><mask id="b" style="mask-type:alpha" maskUnits="userSpaceOnUse" x="-3" y="-3" width="94" height="94"><rect x="-2.18" y="-2.906" width="93" height="93" rx="8.719" fill="#212121"/></mask><g mask="url(#b)"><path d="M32.521 36.615v27.1a4.541 4.541 0 1 1-9.082 0v-29.97c0-5.618 4.554-10.172 10.172-10.172h24.703c5.618 0 10.172 4.554 10.172 10.172v30.15a4.724 4.724 0 0 1-9.448.003l-.014-27.288a4.32 4.32 0 0 0-8.641.002v9.396a4.607 4.607 0 0 1-9.215 0v-9.393a4.323 4.323 0 1 0-8.647 0Z" fill="#65CB88"/></g></g></svg>