<svg viewBox="0 0 634 618" fill="none" xmlns="http://www.w3.org/2000/svg">
<g filter="url(#filter0_d_1921_3431)">
<path d="M316.125 22.8632C156.534 22.8632 27.1597 149.661 27.1597 306.075C27.1597 462.487 156.534 589.286 316.125 589.286H321.065C480.657 589.286 610.032 462.487 610.032 306.075C610.032 149.661 480.657 22.8632 321.065 22.8632H316.125Z" fill="url(#paint0_linear_1921_3431)"/>
</g>
<g filter="url(#filter1_d_1921_3431)">
<path d="M13.8862 404.842V210.062C13.8867 158.01 34.9848 108.089 72.5401 71.282C110.095 34.4753 161.03 13.7971 214.141 13.7971H420.46C473.572 13.7976 524.506 34.4758 562.06 71.2825C599.614 108.089 620.713 158.01 620.713 210.062V404.842C620.713 456.893 599.619 506.815 562.06 543.623C524.506 580.427 473.572 601.106 420.46 601.106H214.141C161.03 601.106 110.094 580.432 72.5391 543.623C34.9843 506.815 13.8862 456.893 13.8862 404.842Z" fill="url(#paint1_linear_1921_3431)"/>
</g>
<path d="M17.6093 274.563L97.6391 106.356C118.705 62.0792 156.854 27.818 203.694 11.1089C250.535 -5.60027 302.229 -3.38778 347.405 17.2585L525.481 98.6439C547.852 108.867 567.948 123.308 584.62 141.143C601.296 158.977 614.224 179.856 622.663 202.587C631.108 225.318 634.898 249.456 633.821 273.623C632.744 297.79 626.819 321.512 616.391 343.436L536.361 511.642C515.294 555.919 477.144 590.182 430.304 606.889C383.464 623.601 331.77 621.388 286.594 600.741L108.517 519.355C63.3405 498.708 28.3832 461.318 11.3345 415.41C-5.71382 369.504 -3.45689 318.839 17.6093 274.563Z" fill="url(#paint2_linear_1921_3431)"/>
<path d="M90.9043 320.28L125.451 193.996C136.154 154.872 162.276 121.518 198.071 101.271C233.866 81.0234 276.402 75.5421 316.321 86.0318L453.151 121.987C493.071 132.477 527.103 158.079 547.759 193.161C568.419 228.243 574.012 269.932 563.312 309.056L528.762 435.341C518.062 474.463 491.939 507.817 456.146 528.067C420.348 548.312 377.813 553.794 337.894 543.305L201.064 507.351C161.145 496.861 127.112 471.258 106.454 436.177C85.7946 401.093 80.2015 359.404 90.9043 320.28Z" fill="#212121"/>
<defs>
<filter id="filter0_d_1921_3431" x="17.6466" y="18.1067" width="601.898" height="585.449" filterUnits="userSpaceOnUse" color-interpolation-filters="sRGB">
<feFlood flood-opacity="0" result="BackgroundImageFix"/>
<feColorMatrix in="SourceAlpha" type="matrix" values="0 0 0 0 0 0 0 0 0 0 0 0 0 0 0 0 0 0 127 0" result="hardAlpha"/>
<feOffset dy="4.75655"/>
<feGaussianBlur stdDeviation="4.75655"/>
<feColorMatrix type="matrix" values="0 0 0 0 0 0 0 0 0 0 0 0 0 0 0 0 0 0 0.161 0"/>
<feBlend mode="normal" in2="BackgroundImageFix" result="effect1_dropShadow_1921_3431"/>
<feBlend mode="normal" in="SourceGraphic" in2="effect1_dropShadow_1921_3431" result="shape"/>
</filter>
<filter id="filter1_d_1921_3431" x="4.37313" y="9.04055" width="625.853" height="606.335" filterUnits="userSpaceOnUse" color-interpolation-filters="sRGB">
<feFlood flood-opacity="0" result="BackgroundImageFix"/>
<feColorMatrix in="SourceAlpha" type="matrix" values="0 0 0 0 0 0 0 0 0 0 0 0 0 0 0 0 0 0 127 0" result="hardAlpha"/>
<feOffset dy="4.75655"/>
<feGaussianBlur stdDeviation="4.75655"/>
<feColorMatrix type="matrix" values="0 0 0 0 0 0 0 0 0 0 0 0 0 0 0 0 0 0 0.161 0"/>
<feBlend mode="normal" in2="BackgroundImageFix" result="effect1_dropShadow_1921_3431"/>
<feBlend mode="normal" in="SourceGraphic" in2="effect1_dropShadow_1921_3431" result="shape"/>
</filter>
<linearGradient id="paint0_linear_1921_3431" x1="530.76" y1="732.026" x2="94.4861" y2="-66.5402" gradientUnits="userSpaceOnUse">
<stop stop-color="#00E2FF"/>
<stop offset="1" stop-color="#8900FF"/>
</linearGradient>
<linearGradient id="paint1_linear_1921_3431" x1="538.187" y1="749.112" x2="86.8203" y2="-80.4481" gradientUnits="userSpaceOnUse">
<stop stop-color="#05FF00"/>
<stop offset="1" stop-color="#10400B"/>
</linearGradient>
<linearGradient id="paint2_linear_1921_3431" x1="57.6244" y1="190.459" x2="572.597" y2="435.475" gradientUnits="userSpaceOnUse">
<stop stop-color="#45A225"/>
<stop offset="1" stop-color="#1F631D"/>
</linearGradient>
</defs>
</svg>
