<svg width="164" height="161" viewBox="0 0 164 161" fill="none" xmlns="http://www.w3.org/2000/svg">
<g filter="url(#filter0_d_1749_3924)">
<path d="M81.7706 18.0672C47.2421 18.0672 19.2512 45.5188 19.2512 79.3821C19.2512 113.245 47.2421 140.697 81.7706 140.697H82.8393C117.368 140.697 145.359 113.245 145.359 79.3821C145.359 45.5188 117.368 18.0672 82.8393 18.0672H81.7706Z" fill="url(#paint0_linear_1749_3924)"/>
</g>
<g filter="url(#filter1_d_1749_3924)">
<path d="M16.3794 100.765V58.5955C16.3795 47.3262 20.9442 36.5184 29.0695 28.5498C37.1947 20.5812 48.2148 16.1044 59.7056 16.1044H104.344C115.835 16.1045 126.855 20.5813 134.98 28.5499C143.105 36.5185 147.67 47.3262 147.67 58.5955V100.765C147.67 112.034 143.106 122.842 134.98 130.811C126.855 138.779 115.835 143.256 104.344 143.256H59.7056C48.2148 143.256 37.1946 138.78 29.0693 130.811C20.9441 122.842 16.3794 112.034 16.3794 100.765H16.3794Z" fill="url(#paint1_linear_1749_3924)"/>
</g>
<path d="M17.185 72.5598L34.4999 36.1432C39.0577 26.5574 47.3115 19.1399 57.4456 15.5224C67.5798 11.9049 78.7641 12.3839 88.5382 16.8538L127.066 34.4736C131.906 36.6868 136.254 39.8133 139.861 43.6745C143.469 47.5356 146.266 52.0559 148.092 56.9771C149.919 61.8984 150.739 67.1243 150.506 72.3564C150.273 77.5885 148.991 82.7243 146.735 87.4707L129.42 123.887C124.862 133.473 116.608 140.891 106.474 144.508C96.3398 148.126 85.1554 147.647 75.3813 143.177L36.8533 125.557C27.0792 121.087 19.516 112.992 15.8274 103.053C12.1389 93.1145 12.6272 82.1456 17.185 72.5598V72.5598Z" fill="url(#paint2_linear_1749_3924)"/>
<path d="M33.0429 82.4574L40.5172 55.1173C42.8329 46.647 48.4847 39.4258 56.2291 35.0423C63.9736 30.6588 73.1764 29.4721 81.8131 31.7431L111.417 39.5274C120.054 41.7985 127.417 47.3412 131.886 54.9365C136.356 62.5317 137.566 71.5572 135.251 80.0275L127.776 107.368C125.461 115.838 119.809 123.059 112.065 127.443C104.32 131.826 95.1172 133.013 86.4805 130.742L56.8765 122.958C48.2398 120.687 40.8767 115.144 36.4071 107.549C31.9374 99.9533 30.7273 90.9277 33.0429 82.4574Z" fill="#212121"/>
<line x1="89.5" y1="72.5" x2="89.5" y2="91.5" stroke="white" stroke-width="5" stroke-linecap="round"/>
<line x1="72.5" y1="72.5" x2="72.5" y2="91.5" stroke="white" stroke-width="5" stroke-linecap="round"/>
<defs>
<filter id="filter0_d_1749_3924" x="9.73813" y="13.3106" width="145.134" height="141.656" filterUnits="userSpaceOnUse" color-interpolation-filters="sRGB">
<feFlood flood-opacity="0" result="BackgroundImageFix"/>
<feColorMatrix in="SourceAlpha" type="matrix" values="0 0 0 0 0 0 0 0 0 0 0 0 0 0 0 0 0 0 127 0" result="hardAlpha"/>
<feOffset dy="4.75655"/>
<feGaussianBlur stdDeviation="4.75655"/>
<feColorMatrix type="matrix" values="0 0 0 0 0 0 0 0 0 0 0 0 0 0 0 0 0 0 0.161 0"/>
<feBlend mode="normal" in2="BackgroundImageFix" result="effect1_dropShadow_1749_3924"/>
<feBlend mode="normal" in="SourceGraphic" in2="effect1_dropShadow_1749_3924" result="shape"/>
</filter>
<filter id="filter1_d_1749_3924" x="6.8663" y="11.3479" width="150.317" height="146.178" filterUnits="userSpaceOnUse" color-interpolation-filters="sRGB">
<feFlood flood-opacity="0" result="BackgroundImageFix"/>
<feColorMatrix in="SourceAlpha" type="matrix" values="0 0 0 0 0 0 0 0 0 0 0 0 0 0 0 0 0 0 127 0" result="hardAlpha"/>
<feOffset dy="4.75655"/>
<feGaussianBlur stdDeviation="4.75655"/>
<feColorMatrix type="matrix" values="0 0 0 0 0 0 0 0 0 0 0 0 0 0 0 0 0 0 0.161 0"/>
<feBlend mode="normal" in2="BackgroundImageFix" result="effect1_dropShadow_1749_3924"/>
<feBlend mode="normal" in="SourceGraphic" in2="effect1_dropShadow_1749_3924" result="shape"/>
</filter>
<linearGradient id="paint0_linear_1749_3924" x1="128.208" y1="171.6" x2="33.7218" y2="-1.23609" gradientUnits="userSpaceOnUse">
<stop stop-color="#00E2FF"/>
<stop offset="1" stop-color="#8900FF"/>
</linearGradient>
<linearGradient id="paint1_linear_1749_3924" x1="129.815" y1="175.299" x2="32.0597" y2="-4.24542" gradientUnits="userSpaceOnUse">
<stop stop-color="#05FF00"/>
<stop offset="1" stop-color="#10400B"/>
</linearGradient>
<linearGradient id="paint2_linear_1749_3924" x1="25.8425" y1="54.3515" x2="137.287" y2="107.34" gradientUnits="userSpaceOnUse">
<stop stop-color="#45A225"/>
<stop offset="1" stop-color="#1F631D"/>
</linearGradient>
</defs>
</svg>
