<svg width="165" height="161" viewBox="0 0 165 161" fill="none" xmlns="http://www.w3.org/2000/svg">
<g filter="url(#filter0_d_1578_4010)">
<path d="M81.9882 18.1763C47.4596 18.1763 19.4688 45.6279 19.4688 79.4912C19.4688 113.355 47.4596 140.806 81.9882 140.806H83.0569C117.585 140.806 145.576 113.355 145.576 79.4912C145.576 45.6279 117.585 18.1763 83.0569 18.1763H81.9882Z" fill="url(#paint0_linear_1578_4010)"/>
</g>
<g filter="url(#filter1_d_1578_4010)">
<path d="M16.5969 100.874V58.7047C16.597 47.4353 21.1618 36.6275 29.287 28.6589C37.4122 20.6903 48.4324 16.2136 59.9231 16.2136H104.562C116.053 16.2137 127.073 20.6904 135.198 28.659C143.323 36.6276 147.888 47.4354 147.888 58.7047V100.874C147.888 112.143 143.323 122.951 135.198 130.92C127.073 138.889 116.053 143.365 104.562 143.365H59.9231C48.4323 143.365 37.4121 138.889 29.2869 130.92C21.1616 122.951 16.5969 112.143 16.5969 100.874H16.5969Z" fill="url(#paint1_linear_1578_4010)"/>
</g>
<path d="M17.4025 72.669L34.7175 36.2523C39.2752 26.6665 47.529 19.249 57.6632 15.6315C67.7973 12.0141 78.9816 12.493 88.7557 16.9629L127.284 34.5827C132.123 36.796 136.471 39.9224 140.079 43.7836C143.686 47.6448 146.483 52.165 148.31 57.0863C150.136 62.0075 150.956 67.2334 150.723 72.4655C150.49 77.6976 149.209 82.8335 146.952 87.5799L129.637 123.997C125.079 133.582 116.826 141 106.691 144.617C96.5573 148.235 85.3729 147.756 75.5988 143.286L37.0708 125.666C27.2967 121.196 19.7335 113.101 16.045 103.163C12.3564 93.2236 12.8448 82.2548 17.4025 72.669Z" fill="url(#paint2_linear_1578_4010)"/>
<path d="M33.2603 82.5665L40.7346 55.2264C43.0503 46.7561 48.7021 39.535 56.4465 35.1515C64.191 30.768 73.3938 29.5812 82.0305 31.8522L111.634 39.6366C120.271 41.9076 127.634 47.4504 132.104 55.0456C136.574 62.6408 137.784 71.6663 135.468 80.1366L127.994 107.477C125.678 115.947 120.026 123.168 112.282 127.552C104.537 131.935 95.3346 133.122 86.6979 130.851L57.094 123.067C48.4572 120.796 41.0941 115.253 36.6245 107.658C32.1548 100.062 30.9447 91.0368 33.2603 82.5665Z" fill="#212121"/>
<path d="M91.4833 81.174L75.8467 72.2552V90.0928L91.4833 81.174ZM93.6171 79.3304C93.9474 79.5163 94.2219 79.7847 94.4128 80.1085C94.6037 80.4322 94.7042 80.7998 94.7042 81.174C94.7042 81.5482 94.6037 81.9158 94.4128 82.2395C94.2219 82.5633 93.9474 82.8317 93.6171 83.0176L76.4744 92.7973C75.0734 93.5973 73.1525 92.6834 73.1525 90.9537V71.3943C73.1525 69.6646 75.0734 68.7508 76.4744 69.5507L93.6171 79.3304Z" fill="white"/>
<defs>
<filter id="filter0_d_1578_4010" x="9.95566" y="13.4197" width="145.134" height="141.656" filterUnits="userSpaceOnUse" color-interpolation-filters="sRGB">
<feFlood flood-opacity="0" result="BackgroundImageFix"/>
<feColorMatrix in="SourceAlpha" type="matrix" values="0 0 0 0 0 0 0 0 0 0 0 0 0 0 0 0 0 0 127 0" result="hardAlpha"/>
<feOffset dy="4.75655"/>
<feGaussianBlur stdDeviation="4.75655"/>
<feColorMatrix type="matrix" values="0 0 0 0 0 0 0 0 0 0 0 0 0 0 0 0 0 0 0.161 0"/>
<feBlend mode="normal" in2="BackgroundImageFix" result="effect1_dropShadow_1578_4010"/>
<feBlend mode="normal" in="SourceGraphic" in2="effect1_dropShadow_1578_4010" result="shape"/>
</filter>
<filter id="filter1_d_1578_4010" x="7.08383" y="11.4571" width="150.317" height="146.178" filterUnits="userSpaceOnUse" color-interpolation-filters="sRGB">
<feFlood flood-opacity="0" result="BackgroundImageFix"/>
<feColorMatrix in="SourceAlpha" type="matrix" values="0 0 0 0 0 0 0 0 0 0 0 0 0 0 0 0 0 0 127 0" result="hardAlpha"/>
<feOffset dy="4.75655"/>
<feGaussianBlur stdDeviation="4.75655"/>
<feColorMatrix type="matrix" values="0 0 0 0 0 0 0 0 0 0 0 0 0 0 0 0 0 0 0.161 0"/>
<feBlend mode="normal" in2="BackgroundImageFix" result="effect1_dropShadow_1578_4010"/>
<feBlend mode="normal" in="SourceGraphic" in2="effect1_dropShadow_1578_4010" result="shape"/>
</filter>
<linearGradient id="paint0_linear_1578_4010" x1="128.426" y1="171.709" x2="33.9394" y2="-1.12696" gradientUnits="userSpaceOnUse">
<stop stop-color="#00E2FF"/>
<stop offset="1" stop-color="#8900FF"/>
</linearGradient>
<linearGradient id="paint1_linear_1578_4010" x1="130.032" y1="175.408" x2="32.2772" y2="-4.13629" gradientUnits="userSpaceOnUse">
<stop stop-color="#05FF00"/>
<stop offset="1" stop-color="#10400B"/>
</linearGradient>
<linearGradient id="paint2_linear_1578_4010" x1="26.06" y1="54.4606" x2="137.505" y2="107.449" gradientUnits="userSpaceOnUse">
<stop stop-color="#45A225"/>
<stop offset="1" stop-color="#1F631D"/>
</linearGradient>
</defs>
</svg>
