<?xml version="1.0" standalone="no"?>
<!DOCTYPE svg PUBLIC "-//W3C//DTD SVG 20010904//EN"
 "http://www.w3.org/TR/2001/REC-SVG-20010904/DTD/svg10.dtd">
<svg version="1.0" xmlns="http://www.w3.org/2000/svg"
 width="700.000000pt" height="700.000000pt" viewBox="0 0 700.000000 700.000000"
 preserveAspectRatio="xMidYMid meet">
<metadata>
Created by potrace 1.14, written by Peter Selinger 2001-2017
</metadata>
<g transform="translate(0.000000,700.000000) scale(0.100000,-0.100000)"
fill="#000000" stroke="none">
<path d="M1709 6913 c-8 -1 -77 -4 -154 -7 -181 -6 -208 -10 -371 -56 -523
-149 -939 -580 -1070 -1108 -13 -54 -25 -113 -28 -132 -2 -19 -8 -57 -12 -85
-9 -65 -9 -4754 0 -4820 38 -269 244 -498 514 -571 75 -20 221 -24 302 -7 285
58 495 275 550 568 5 30 9 902 10 2175 0 1169 3 2139 6 2155 57 320 308 545
623 559 327 15 613 -216 677 -544 4 -19 8 -393 9 -830 1 -437 5 -811 9 -830 9
-47 37 -141 47 -160 142 -273 363 -419 640 -421 221 -2 434 104 567 283 63 83
94 155 129 289 3 13 7 384 8 824 3 774 7 889 34 944 5 9 26 51 47 95 75 155
241 287 419 331 91 23 229 23 319 0 260 -66 464 -298 492 -557 4 -33 8 -1019
9 -2191 2 -1173 6 -2148 9 -2167 11 -60 36 -133 68 -195 32 -64 109 -170 142
-196 12 -10 35 -29 51 -43 17 -15 59 -43 93 -63 275 -155 625 -112 849 105
107 102 168 210 208 362 14 54 17 505 17 2470 0 1286 -3 2371 -7 2411 -58 645
-524 1200 -1141 1359 -207 53 -159 52 -2172 53 -1033 1 -1885 1 -1893 0z"/>
</g>
</svg>
