<svg width="172" height="128" fill="none" xmlns="http://www.w3.org/2000/svg"><path fill-rule="evenodd" clip-rule="evenodd" d="M137.986 60.003h30.557A3.465 3.465 0 0 1 172 63.461v21.588a3.465 3.465 0 0 1-3.457 3.458h-30.557a3.465 3.465 0 0 1-3.457-3.458V63.447c0-1.89 1.554-3.444 3.457-3.444ZM18.743 49.601c10.358 0 18.742 8.4 18.742 18.746 0 10.346-8.398 18.746-18.742 18.746C8.397 87.093 0 78.707 0 68.36S8.398 49.6 18.742 49.6Zm-2.59 9.324h2.296c.42 0 .77.35.77.77v8.834h8.062c.42 0 .77.35.77.77v2.296c0 .42-.35.77-.77.77H15.397V59.709a.751.751 0 0 1 .756-.784Zm2.59-5.054c8.006 0 14.487 6.482 14.487 14.49s-6.481 14.49-14.487 14.49c-8.007 0-14.488-6.482-14.488-14.49s6.495-14.49 14.488-14.49ZM73.5 108.876c4.731 13.944 24.538 14.462 28.989 0 5.249 4.704 20.744 5.67 26.511 8.89 1.82 1.008 3.471 2.324 4.801 4.06.882 1.176 2.072 3.346 2.968 5.768H39.207c.895-2.422 2.085-4.592 2.967-5.768 1.33-1.75 2.968-3.038 4.801-4.06 5.781-3.234 21.276-4.186 26.525-8.89ZM93.363 21.91c.826-.14.924-.126 1.61.042V7.49l-15.678 4.214v17.738c.014.098.014.21.014.308 0 2.52-3.331 5.026-6.593 5.585-3.26.56-5.906-1.022-5.906-3.541 0-2.52 2.645-5.026 5.906-5.586 1.232-.21 2.366-.112 3.318.21V5.054h.14L98.234 0v24.29c.042.196.056.378.056.574 0 2.1-2.212 4.2-4.927 4.662-2.73.476-4.927-.854-4.927-2.954s2.197-4.2 4.927-4.662ZM69.86 79.98c-.994.043-1.736.253-2.254.589-.293.21-.504.448-.657.756a2.684 2.684 0 0 0-.224 1.204c.042 1.358.755 3.15 2.127 5.208l.014.028 4.48 7.126c1.791 2.855 3.68 5.767 6.032 7.909 2.24 2.058 4.983 3.444 8.595 3.458 3.905.014 6.774-1.428 9.098-3.612 2.421-2.254 4.311-5.362 6.201-8.442l5.039-8.315c.938-2.142 1.288-3.584 1.078-4.438-.126-.504-.686-.756-1.624-.798a4.318 4.318 0 0 0-.602 0c-.238 0-.462.014-.714.042-.126.014-.266 0-.392-.028-.448.028-.91 0-1.385-.07l1.707-6.93c-12.821 2.03-22.424-7.504-35.987-1.918l.966 8.302c-.49.014-1.022 0-1.498-.07Zm39.641-1.61c1.245.379 2.043 1.177 2.365 2.45.364 1.4-.028 3.403-1.232 6.133-.028.042-.042.098-.07.14l-5.109 8.413c-1.973 3.248-3.975 6.496-6.634 8.988-2.772 2.576-6.173 4.298-10.82 4.298-4.34-.014-7.615-1.666-10.302-4.13-2.59-2.38-4.578-5.432-6.467-8.428l-4.48-7.125c-1.637-2.45-2.491-4.676-2.533-6.51-.028-.868.112-1.652.434-2.338.336-.728.854-1.316 1.54-1.792a4.426 4.426 0 0 1 1.091-.546c-.293-3.864-.405-8.022-.224-12.096.098-.966.28-1.946.546-2.898 1.148-4.102 4.018-5.964 7.573-8.232 1.96-1.246 4.115-2.184 6.34-2.828.407-.112 5.978-13.3 23.866 6.048 2.492 2.702 4.046 4.844 4.396 9.562l-.28 10.892Zm-86.84 45.038c.742 1.638 0 3.57-1.638 4.298-1.638.742-3.57 0-4.297-1.638-1.82-4.074-3.318-8.316-4.41-12.684a76.672 76.672 0 0 1-2.113-13.286 95.627 95.627 0 0 1-.14-2.772 74.358 74.358 0 0 1-.056-2.771 3.274 3.274 0 0 1 3.262-3.262 3.274 3.274 0 0 1 3.26 3.261c0 1.064.015 1.904.029 2.534.028.729.07 1.583.14 2.535a69.414 69.414 0 0 0 1.945 12.151 68.734 68.734 0 0 0 4.018 11.634Zm14.417-78.609c-1.26 1.274-3.331 1.274-4.605.014-1.274-1.26-1.274-3.332-.014-4.606 3.135-3.136 7.237-6.608 11.604-9.631 3.835-2.646 7.894-4.97 11.716-6.454 1.68-.658 3.569.182 4.199 1.848.658 1.68-.182 3.57-1.848 4.2-3.317 1.287-6.914 3.346-10.372 5.74-4.017 2.8-7.81 6.005-10.68 8.89Zm78.861-14.49c-1.637-.742-2.379-2.66-1.637-4.297.742-1.638 2.659-2.38 4.297-1.638a77.36 77.36 0 0 1 16.587 10.206 77.166 77.166 0 0 1 13.535 14.07 3.237 3.237 0 0 1-.686 4.55 3.234 3.234 0 0 1-4.549-.687A70.936 70.936 0 0 0 131.1 39.647a69.673 69.673 0 0 0-15.16-9.337Zm41.265 69.551a3.257 3.257 0 0 1 3.471-3.023 3.258 3.258 0 0 1 3.024 3.471 78.5 78.5 0 0 1-2.086 12.964 77.525 77.525 0 0 1-4.255 12.39 3.252 3.252 0 0 1-4.297 1.666 3.253 3.253 0 0 1-1.666-4.298 69.021 69.021 0 0 0 3.891-11.34 66.858 66.858 0 0 0 1.918-11.83Zm-6.033-32.045 8.398 5.852a1.26 1.26 0 0 1 .042 2.1l-8.356 5.782c-.21.182-.49.28-.798.28-.7 0-1.26-.56-1.26-1.26V68.837c0-.252.07-.504.224-.714a1.247 1.247 0 0 1 1.75-.308Z" fill="#65CB88"/></svg>