<svg width="174" height="128" fill="none" xmlns="http://www.w3.org/2000/svg"><path fill-rule="evenodd" clip-rule="evenodd" d="M100.737 0H9.157C4.122 0 0 4.114 0 9.143c0 5.028 4.121 9.143 9.158 9.143h91.579c5.037 0 9.158-4.115 9.158-9.143 0-5.029-4.121-9.143-9.158-9.143Zm0 36.571H9.157C4.122 36.571 0 40.686 0 45.714c0 5.029 4.121 9.143 9.158 9.143h91.579c5.037 0 9.158-4.114 9.158-9.143 0-5.028-4.121-9.143-9.158-9.143ZM9.157 91.43h54.948c5.037 0 9.158-4.115 9.158-9.143 0-5.029-4.12-9.143-9.158-9.143H9.158C4.12 73.143 0 77.257 0 82.286c0 5.028 4.121 9.143 9.158 9.143ZM146.527 0c-10.073 0-18.315 8.229-18.315 18.286v56.503c-2.839-1.006-5.953-1.646-9.158-1.646-16.851 0-30.038 14.994-27.016 32.366 1.923 11.062 10.989 20.114 22.07 22.034 17.4 3.017 32.419-10.149 32.419-26.972V18.286h18.316c5.037 0 9.158-4.115 9.158-9.143C174 4.114 169.879 0 164.842 0h-18.316Z" fill="#65CB88"/></svg>