<svg width="128" height="128" fill="none" xmlns="http://www.w3.org/2000/svg"><path d="M64 128C28.71 128 0 99.29 0 64S28.71 0 64 0s64 28.71 64 64-28.71 64-64 64ZM64 9.143C33.75 9.143 9.143 33.75 9.143 64S33.75 118.857 64 118.857 118.857 94.25 118.857 64 94.25 9.143 64 9.143Z" fill="#65CB88"/><path d="M64 128a4.569 4.569 0 0 1-4.571-4.571V96h-4.572v4.571a4.576 4.576 0 0 1-2.59 4.121 4.588 4.588 0 0 1-4.838-.549L24.57 85.857a4.578 4.578 0 0 1 0-7.143L47.43 60.428a4.58 4.58 0 0 1 4.839-.549A4.577 4.577 0 0 1 54.858 64v4.571h4.57V54.857A4.569 4.569 0 0 1 64 50.286h13.714a4.572 4.572 0 0 1 4.558 4.214l10.982-8.786-10.982-8.785a4.572 4.572 0 0 1-4.558 4.214H64a4.569 4.569 0 0 1-4.571-4.572v-32A4.569 4.569 0 0 1 64 0a4.569 4.569 0 0 1 4.572 4.571V32h4.57v-4.571a4.573 4.573 0 0 1 7.429-3.572l22.858 18.286a4.58 4.58 0 0 1 0 7.143L80.571 67.572a4.56 4.56 0 0 1-4.839.549A4.577 4.577 0 0 1 73.142 64v-4.571h-4.57v13.714A4.569 4.569 0 0 1 64 77.714H50.286a4.572 4.572 0 0 1-4.558-4.214l-10.982 8.786 10.982 8.785a4.572 4.572 0 0 1 4.558-4.214H64a4.569 4.569 0 0 1 4.572 4.572v32A4.57 4.57 0 0 1 64 128Z" fill="#65CB88"/></svg>