<svg width="128" height="128" fill="none" xmlns="http://www.w3.org/2000/svg"><path d="M112 62.072V16L32 0v65.4a23.803 23.803 0 0 0-8-1.4C10.736 64 0 74.764 0 88c0 13.256 10.736 24 24 24 13.244 0 24-10.744 24-24V24l48 8v24.236A35.739 35.739 0 0 0 92 56c-19.892 0-36 16.108-36 36 0 19.884 16.108 35.992 36 36 19.884-.008 35.992-16.116 36-36-.004-12.484-6.356-23.472-16-29.928Zm-20 57.46C76.796 119.496 64.496 107.196 64.46 92 64.496 76.796 76.796 64.496 92 64.464c15.196.032 27.496 12.332 27.532 27.536-.036 15.196-12.336 27.496-27.532 27.532Z" fill="#65CB88"/><path d="M112 96v-8.004h-6.652a13.783 13.783 0 0 0-.98-2.424l4.748-4.748-5.664-5.66-4.66 4.664a13.719 13.719 0 0 0-2.788-1.176V72h-8v6.648c-.916.272-1.784.632-2.608 1.08l-4.564-4.56-5.66 5.66 4.56 4.56A13.878 13.878 0 0 0 78.648 88H72v8h6.648c.292.984.688 1.916 1.18 2.792l-4.66 4.652 5.652 5.664 4.752-4.748c.768.404 1.576.728 2.42.98V112H96v-6.66c.916-.272 1.78-.632 2.604-1.08l4.848 4.848 5.656-5.664-4.848-4.84A14.06 14.06 0 0 0 105.34 96H112Zm-20.004 1.996a6.013 6.013 0 0 1-6.004-6 6.02 6.02 0 0 1 6.004-6.004 6.013 6.013 0 0 1 6 6.004 6.007 6.007 0 0 1-6 6Z" fill="#65CB88"/></svg>