<svg width="20" height="20" fill="none" xmlns="http://www.w3.org/2000/svg"><path d="M10 .4A9.6 9.6 0 0 0 .4 10a9.6 9.6 0 0 0 9.6 9.6 9.6 9.6 0 0 0 9.6-9.6A9.6 9.6 0 0 0 10 .4Zm2.644 12.43c-2.002 0-2.697-.91-3.066-2.043l-.371-1.166c-.277-.85-.501-1.467-1.52-1.467-.705 0-1.625.463-1.625 1.898 0 1.12.77 1.82 1.568 1.82.677 0 1.084-.38 1.296-.572l.354 1.012c-.241.174-.734.517-1.707.517-1.346 0-2.625-.957-2.625-2.73 0-1.844 1.333-2.93 2.705-2.93 1.54 0 2.113.56 2.6 2.078l.382 1.166c.278.852.865 1.471 2.034 1.471.787 0 1.204-.176 1.204-.607 0-.338-.197-.584-.787-.723l-.787-.188c-.961-.232-1.343-.734-1.343-1.529 0-1.27 1.018-1.668 2.06-1.668 1.182 0 1.899.432 1.99 1.482l-1.156.14c-.046-.5-.347-.712-.903-.712-.51 0-.821.234-.821.631 0 .35.15.56.66.676l.74.164c.995.233 1.528.723 1.528 1.668-.001 1.17-.974 1.612-2.41 1.612Z" fill="#65CB88"/></svg>