<svg width="92" height="125" viewBox="0 0 92 125" fill="none" xmlns="http://www.w3.org/2000/svg">
<path d="M86.1741 75.7863C86.8082 75.1849 87.2496 74.3418 87.2867 73.297C88.6049 50.3088 89.4012 27.341 91.3426 4.3635C91.5644 1.567 88.5876 0.0638701 86.2146 1.04852C77.2295 4.73604 67.6427 7.21256 58.3891 10.1946C49.69 13.0299 41.0411 15.894 32.4317 18.965C31.3081 17.7751 28.926 18.0442 28.7721 20.1549C27.8115 33.4065 27.7316 46.7099 27.8882 59.9766C28.0232 71.4529 27.9565 83.25 29.0773 94.7596C20.241 94.7263 10.2313 96.0288 3.93385 102.122C-2.91341 108.719 -0.233027 118.94 8.19256 122.755C16.9206 126.716 28.8748 122.079 34.8004 115.249C37.6225 112.017 39.3388 107.725 37.8263 103.524C37.5131 102.688 37.1188 101.898 36.6153 101.205C37.1474 100.572 37.4805 99.7997 37.4766 99.0075C37.0486 85.9293 35.3224 72.8267 34.6082 59.7576C34.3249 54.5814 34.0944 49.3823 33.9147 44.2121C37.4824 43.2465 40.9067 41.6597 44.3621 40.4066C48.6958 38.8214 53.0474 37.3654 57.4483 35.9634C61.5578 34.6465 65.6867 33.4329 69.8612 32.3243C73.8516 31.256 78.026 30.5816 81.9283 29.2525C80.8648 41.6297 79.9824 54.017 79.5955 66.3828C72.4038 63.6623 64.0642 64.8584 58.3706 70.8589C50.9002 78.7221 51.6878 91.4377 62.464 95.9273C72.1492 99.9698 85.1526 94.3214 87.5245 83.9369C88.2132 80.7336 87.6 77.9897 86.1741 75.7863ZM10.2296 111.891C10.2343 111.815 10.2651 111.74 10.2698 111.664C10.3944 113.459 11.0695 115.184 12.3151 116.509C10.7107 115.955 9.755 114.571 10.2296 111.891ZM31.6209 110.669C32.1428 109.78 32.6144 108.863 32.9306 107.936C32.7149 108.92 32.2448 109.812 31.6209 110.669ZM80.2185 21.8721C75.8236 22.3292 71.3268 24.0323 67.1168 25.2921C62.8797 26.5757 58.6619 27.9632 54.4636 29.4535C47.6625 31.8644 40.0489 34.3804 33.6602 38.1181C33.4636 32.7936 33.2948 27.4448 33.072 22.1188C42.3316 19.9039 51.501 17.4533 60.6718 14.9776C68.3372 12.8982 76.0273 10.4126 83.7802 8.59395C83.321 13.165 82.8859 17.7627 82.4779 22.3367C81.8245 21.9664 81.0311 21.7665 80.2185 21.8721ZM78.601 85.7632C77.9555 86.5426 77.108 87.2337 76.1369 87.8154C77.8951 86.2582 79.2574 84.3711 79.8729 82.3639C80.0429 82.1441 80.1875 81.897 80.3312 81.6758C80.3042 82.9767 79.7493 84.4 78.601 85.7632Z" fill="#65CB88"/>
</svg>
