<svg width="77" height="22" viewBox="0 0 77 22" fill="none" xmlns="http://www.w3.org/2000/svg">
<g clip-path="url(#clip0)">
<path d="M5.3765 16.6102L7.46808 6.12376C7.6214 5.35508 8.36882 4.85623 9.1375 5.00955C9.90617 5.16287 10.405 5.91029 10.2517 6.67897L9.52676 10.3136C9.2994 11.4535 10.0392 12.5619 11.1791 12.7893C12.319 13.0166 13.4274 12.2769 13.6548 11.1369L14.3799 7.50116C14.5331 6.73312 15.2799 6.23469 16.048 6.38788C16.8157 6.54101 17.3141 7.28734 17.1614 8.05517L15.0608 18.6156C14.8292 19.7801 15.5851 20.9119 16.7494 21.1442C17.9142 21.3765 19.0468 20.6206 19.2792 19.4558L21.6062 7.78882C22.0707 5.45975 20.5592 3.19509 18.2302 2.73054L8.67131 0.82398C6.34224 0.359437 4.07758 1.87093 3.61303 4.2L1.29992 15.7972C1.07539 16.9229 1.80595 18.0175 2.93166 18.242C4.05738 18.4665 5.15197 17.736 5.3765 16.6102Z" stroke="#65CB88" stroke-width="0.573362"/>
</g>
<path d="M29.78 15.1251C29.14 15.1251 28.564 14.9851 28.052 14.7051C27.54 14.4171 27.136 14.0131 26.84 13.4931C26.552 12.9731 26.408 12.3731 26.408 11.6931C26.408 11.0131 26.556 10.4131 26.852 9.89309C27.156 9.37309 27.568 8.97309 28.088 8.69309C28.608 8.40509 29.188 8.26109 29.828 8.26109C30.468 8.26109 31.048 8.40509 31.568 8.69309C32.088 8.97309 32.496 9.37309 32.792 9.89309C33.096 10.4131 33.248 11.0131 33.248 11.6931C33.248 12.3731 33.092 12.9731 32.78 13.4931C32.476 14.0131 32.06 14.4171 31.532 14.7051C31.012 14.9851 30.428 15.1251 29.78 15.1251ZM29.78 13.6611C30.084 13.6611 30.368 13.5891 30.632 13.4451C30.904 13.2931 31.12 13.0691 31.28 12.7731C31.44 12.4771 31.52 12.1171 31.52 11.6931C31.52 11.0611 31.352 10.5771 31.016 10.2411C30.688 9.89709 30.284 9.72509 29.804 9.72509C29.324 9.72509 28.92 9.89709 28.592 10.2411C28.272 10.5771 28.112 11.0611 28.112 11.6931C28.112 12.3251 28.268 12.8131 28.58 13.1571C28.9 13.4931 29.3 13.6611 29.78 13.6611ZM38.6923 15.1251C38.0523 15.1251 37.4763 14.9851 36.9643 14.7051C36.4523 14.4171 36.0483 14.0131 35.7523 13.4931C35.4643 12.9731 35.3203 12.3731 35.3203 11.6931C35.3203 11.0131 35.4683 10.4131 35.7643 9.89309C36.0683 9.37309 36.4803 8.97309 37.0003 8.69309C37.5203 8.40509 38.1003 8.26109 38.7403 8.26109C39.3803 8.26109 39.9603 8.40509 40.4803 8.69309C41.0003 8.97309 41.4083 9.37309 41.7043 9.89309C42.0083 10.4131 42.1603 11.0131 42.1603 11.6931C42.1603 12.3731 42.0043 12.9731 41.6923 13.4931C41.3883 14.0131 40.9723 14.4171 40.4443 14.7051C39.9243 14.9851 39.3403 15.1251 38.6923 15.1251ZM38.6923 13.6611C38.9963 13.6611 39.2803 13.5891 39.5443 13.4451C39.8163 13.2931 40.0323 13.0691 40.1923 12.7731C40.3523 12.4771 40.4323 12.1171 40.4323 11.6931C40.4323 11.0611 40.2643 10.5771 39.9283 10.2411C39.6003 9.89709 39.1963 9.72509 38.7163 9.72509C38.2363 9.72509 37.8323 9.89709 37.5043 10.2411C37.1843 10.5771 37.0243 11.0611 37.0243 11.6931C37.0243 12.3251 37.1803 12.8131 37.4923 13.1571C37.8123 13.4931 38.2123 13.6611 38.6923 13.6611ZM47.1967 15.1251C46.6527 15.1251 46.1647 15.0291 45.7327 14.8371C45.3007 14.6371 44.9567 14.3691 44.7007 14.0331C44.4527 13.6971 44.3167 13.3251 44.2927 12.9171H45.9847C46.0167 13.1731 46.1407 13.3851 46.3567 13.5531C46.5807 13.7211 46.8567 13.8051 47.1847 13.8051C47.5047 13.8051 47.7527 13.7411 47.9287 13.6131C48.1127 13.4851 48.2047 13.3211 48.2047 13.1211C48.2047 12.9051 48.0927 12.7451 47.8687 12.6411C47.6527 12.5291 47.3047 12.4091 46.8247 12.2811C46.3287 12.1611 45.9207 12.0371 45.6007 11.9091C45.2887 11.7811 45.0167 11.5851 44.7847 11.3211C44.5607 11.0571 44.4487 10.7011 44.4487 10.2531C44.4487 9.88509 44.5527 9.54909 44.7607 9.24509C44.9767 8.94109 45.2807 8.70109 45.6727 8.52509C46.0727 8.34909 46.5407 8.26109 47.0767 8.26109C47.8687 8.26109 48.5007 8.46109 48.9727 8.86109C49.4447 9.25309 49.7047 9.78509 49.7527 10.4571H48.1447C48.1207 10.1931 48.0087 9.98509 47.8087 9.83309C47.6167 9.67309 47.3567 9.59309 47.0287 9.59309C46.7247 9.59309 46.4887 9.64909 46.3207 9.76109C46.1607 9.87309 46.0807 10.0291 46.0807 10.2291C46.0807 10.4531 46.1927 10.6251 46.4167 10.7451C46.6407 10.8571 46.9887 10.9731 47.4607 11.0931C47.9407 11.2131 48.3367 11.3371 48.6487 11.4651C48.9607 11.5931 49.2287 11.7931 49.4527 12.0651C49.6847 12.3291 49.8047 12.6811 49.8127 13.1211C49.8127 13.5051 49.7047 13.8491 49.4887 14.1531C49.2807 14.4571 48.9767 14.6971 48.5767 14.8731C48.1847 15.0411 47.7247 15.1251 47.1967 15.1251ZM58.8118 8.36909L54.6958 18.1611H52.9078L54.3478 14.8491L51.6838 8.36909H53.5678L55.2838 13.0131L57.0238 8.36909H58.8118ZM64.6614 8.27309C65.4534 8.27309 66.0934 8.52509 66.5814 9.02909C67.0694 9.52509 67.3134 10.2211 67.3134 11.1171V15.0171H65.6334V11.3451C65.6334 10.8171 65.5014 10.4131 65.2374 10.1331C64.9734 9.84509 64.6134 9.70109 64.1574 9.70109C63.6934 9.70109 63.3254 9.84509 63.0534 10.1331C62.7894 10.4131 62.6574 10.8171 62.6574 11.3451V15.0171H60.9774V8.36909H62.6574V9.19709C62.8814 8.90909 63.1654 8.68509 63.5094 8.52509C63.8614 8.35709 64.2454 8.27309 64.6614 8.27309ZM69.739 11.6931C69.739 11.0051 69.879 10.4051 70.159 9.89309C70.439 9.37309 70.827 8.97309 71.323 8.69309C71.819 8.40509 72.387 8.26109 73.027 8.26109C73.851 8.26109 74.531 8.46909 75.067 8.88509C75.611 9.29309 75.975 9.86909 76.159 10.6131H74.347C74.251 10.3251 74.087 10.1011 73.855 9.94109C73.631 9.77309 73.351 9.68909 73.015 9.68909C72.535 9.68909 72.155 9.86509 71.875 10.2171C71.595 10.5611 71.455 11.0531 71.455 11.6931C71.455 12.3251 71.595 12.8171 71.875 13.1691C72.155 13.5131 72.535 13.6851 73.015 13.6851C73.695 13.6851 74.139 13.3811 74.347 12.7731H76.159C75.975 13.4931 75.611 14.0651 75.067 14.4891C74.523 14.9131 73.843 15.1251 73.027 15.1251C72.387 15.1251 71.819 14.9851 71.323 14.7051C70.827 14.4171 70.439 14.0171 70.159 13.5051C69.879 12.9851 69.739 12.3811 69.739 11.6931Z" fill="#565656"/>
<defs>
<clipPath id="clip0">
<rect width="22.1101" height="22" fill="white"/>
</clipPath>
</defs>
</svg>
