<svg width="138" height="138" viewBox="0 0 138 138" fill="none" xmlns="http://www.w3.org/2000/svg">
<path d="M30.5929 104.885L43.4176 40.5859C44.3577 35.8727 48.9406 32.814 53.6538 33.754C58.367 34.6941 61.4258 39.277 60.4857 43.9902L56.0406 66.2763C54.6465 73.2658 59.1825 80.0621 66.1721 81.4562C73.1616 82.8503 79.9579 78.3143 81.352 71.3248L85.7984 49.0316C86.7377 44.3223 91.3168 41.2661 96.0261 42.2054C100.734 43.1443 103.79 47.7205 102.853 52.4286L89.9734 117.181C88.5531 124.321 93.1878 131.261 100.327 132.685C107.469 134.11 114.414 129.475 115.838 122.333L130.107 50.7954C132.955 36.5145 123.687 22.6285 109.406 19.7801L50.7953 8.08979C36.5144 5.24139 22.6284 14.5093 19.78 28.7902L5.59695 99.8993C4.22022 106.802 8.6997 113.513 15.6021 114.89C22.5046 116.267 29.2162 111.787 30.5929 104.885Z" stroke="#65CB88" stroke-width="3.51562"/>
</svg>
